<svg width="788" height="512" viewBox="0 0 788 512" fill="none" xmlns="http://www.w3.org/2000/svg">
<rect x="0.945312" y="0.175781" width="786.5" height="511" rx="4" fill="white"/>
<path d="M12.0021 48.1758V39.4485H17.2692V40.386H13.0589V43.3349H16.9964V44.2724H13.0589V47.2383H17.3374V48.1758H12.0021ZM19.7876 41.6303L21.3558 44.3065L22.924 41.6303H24.0831L21.9695 44.9031L24.0831 48.1758H22.924L21.3558 45.636L19.7876 48.1758H18.6286L20.7081 44.9031L18.6286 41.6303H19.7876ZM27.4442 48.3292C27.0295 48.3292 26.6531 48.2511 26.315 48.0948C25.9769 47.9357 25.7085 47.707 25.5096 47.4087C25.3107 47.1076 25.2113 46.744 25.2113 46.3178C25.2113 45.9428 25.2852 45.6388 25.4329 45.4059C25.5806 45.1701 25.7781 44.9854 26.0252 44.8519C26.2724 44.7184 26.5451 44.619 26.8434 44.5536C27.1445 44.4854 27.4471 44.4315 27.7511 44.3917C28.1488 44.3406 28.4712 44.3022 28.7184 44.2766C28.9684 44.2482 29.1502 44.2013 29.2638 44.136C29.3803 44.0707 29.4386 43.957 29.4386 43.7951V43.761C29.4386 43.3406 29.3235 43.0138 29.0934 42.7809C28.8661 42.5479 28.521 42.4315 28.0579 42.4315C27.5778 42.4315 27.2013 42.5366 26.9286 42.7468C26.6559 42.957 26.4641 43.1815 26.3533 43.4201L25.3988 43.0792C25.5692 42.6815 25.7965 42.3718 26.0806 42.1502C26.3675 41.9258 26.68 41.7695 27.0181 41.6815C27.359 41.5906 27.6942 41.5451 28.0238 41.5451C28.234 41.5451 28.4755 41.5707 28.7482 41.6218C29.0238 41.6701 29.2894 41.771 29.5451 41.9244C29.8036 42.0778 30.0181 42.3093 30.1886 42.619C30.359 42.9286 30.4442 43.3434 30.4442 43.8633V48.1758H29.4386V47.2894H29.3874C29.3192 47.4315 29.2056 47.5835 29.0465 47.7454C28.8874 47.9073 28.6758 48.0451 28.4116 48.1587C28.1474 48.2724 27.8249 48.3292 27.4442 48.3292ZM27.5977 47.4258C27.9954 47.4258 28.3306 47.3477 28.6033 47.1914C28.8789 47.0352 29.0863 46.8335 29.2255 46.5863C29.3675 46.3391 29.4386 46.0792 29.4386 45.8065V44.886C29.396 44.9371 29.3022 44.984 29.1573 45.0266C29.0153 45.0664 28.8505 45.1019 28.663 45.1332C28.4783 45.1616 28.2979 45.1871 28.1218 45.2099C27.9485 45.2298 27.8079 45.2468 27.6999 45.261C27.4386 45.2951 27.1942 45.3505 26.967 45.4272C26.7425 45.5011 26.5607 45.6133 26.4215 45.7638C26.2852 45.9116 26.217 46.1133 26.217 46.369C26.217 46.7184 26.3462 46.9826 26.6048 47.1616C26.8661 47.3377 27.1971 47.4258 27.5977 47.4258ZM32.2798 48.1758V41.6303H33.2514V42.6531H33.3366C33.473 42.3036 33.6932 42.0323 33.9972 41.8391C34.3011 41.6431 34.6662 41.5451 35.0923 41.5451C35.5241 41.5451 35.8835 41.6431 36.1705 41.8391C36.4602 42.0323 36.6861 42.3036 36.848 42.6531H36.9162C37.0838 42.315 37.3352 42.0465 37.6705 41.8477C38.0057 41.646 38.4077 41.5451 38.8764 41.5451C39.4616 41.5451 39.9403 41.7283 40.3125 42.0948C40.6847 42.4585 40.8707 43.0252 40.8707 43.7951V48.1758H39.8651V43.7951C39.8651 43.3121 39.733 42.967 39.4688 42.7596C39.2045 42.5522 38.8935 42.4485 38.5355 42.4485C38.0753 42.4485 37.7188 42.5877 37.4659 42.8661C37.2131 43.1417 37.0866 43.4911 37.0866 43.9144V48.1758H36.0639V43.6928C36.0639 43.3207 35.9432 43.021 35.7017 42.7937C35.4602 42.5636 35.1491 42.4485 34.7685 42.4485C34.5071 42.4485 34.2628 42.5181 34.0355 42.6573C33.8111 42.7965 33.6293 42.9897 33.4901 43.2369C33.3537 43.4812 33.2855 43.7638 33.2855 44.0849V48.1758H32.2798ZM45.4538 48.3121C44.8232 48.3121 44.2791 48.1729 43.8217 47.8945C43.3672 47.6133 43.0163 47.2212 42.7692 46.7184C42.5249 46.2127 42.4027 45.6246 42.4027 44.9542C42.4027 44.2837 42.5249 43.6928 42.7692 43.1815C43.0163 42.6673 43.3601 42.2667 43.8004 41.9798C44.2436 41.69 44.7607 41.5451 45.3516 41.5451C45.6925 41.5451 46.0291 41.6019 46.3615 41.7156C46.6939 41.8292 46.9964 42.0138 47.2692 42.2695C47.5419 42.5224 47.7592 42.8576 47.9212 43.2752C48.0831 43.6928 48.1641 44.207 48.1641 44.8178V45.244H43.1186V44.3746H47.1413C47.1413 44.0053 47.0675 43.6758 46.9197 43.386C46.7749 43.0962 46.5675 42.8675 46.2976 42.6999C46.0305 42.5323 45.7152 42.4485 45.3516 42.4485C44.951 42.4485 44.6044 42.5479 44.3118 42.7468C44.022 42.9428 43.799 43.1985 43.6428 43.5138C43.4865 43.8292 43.4084 44.1673 43.4084 44.5281V45.1076C43.4084 45.6019 43.4936 46.021 43.6641 46.3647C43.8374 46.7056 44.0774 46.9656 44.3842 47.1445C44.6911 47.3207 45.0476 47.4087 45.4538 47.4087C45.718 47.4087 45.9567 47.3718 46.1697 47.2979C46.3857 47.2212 46.5717 47.1076 46.728 46.957C46.8842 46.8036 47.005 46.6133 47.0902 46.386L48.0618 46.6587C47.9595 46.9883 47.7876 47.2781 47.5462 47.5281C47.3047 47.7752 47.0064 47.9684 46.6513 48.1076C46.2962 48.244 45.897 48.3121 45.4538 48.3121ZM54.3303 43.0962L53.4268 43.3519C53.37 43.2013 53.2862 43.055 53.1754 42.913C53.0675 42.7681 52.9197 42.6488 52.7322 42.555C52.5447 42.4613 52.3047 42.4144 52.0121 42.4144C51.6115 42.4144 51.2777 42.5067 51.0107 42.6914C50.7464 42.8732 50.6143 43.1048 50.6143 43.386C50.6143 43.636 50.7053 43.8335 50.8871 43.9783C51.0689 44.1232 51.353 44.244 51.7393 44.3406L52.7109 44.5792C53.2962 44.7212 53.7322 44.9386 54.0192 45.2312C54.3061 45.521 54.4496 45.8945 54.4496 46.3519C54.4496 46.7269 54.3416 47.0621 54.1257 47.3576C53.9126 47.6531 53.6143 47.886 53.2308 48.0565C52.8473 48.2269 52.4013 48.3121 51.8928 48.3121C51.2251 48.3121 50.6726 48.1673 50.2351 47.8775C49.7976 47.5877 49.5206 47.1644 49.4041 46.6076L50.3587 46.369C50.4496 46.7212 50.6214 46.9854 50.8743 47.1616C51.13 47.3377 51.4638 47.4258 51.8757 47.4258C52.3445 47.4258 52.7166 47.3263 52.9922 47.1275C53.2706 46.9258 53.4098 46.6843 53.4098 46.4031C53.4098 46.1758 53.3303 45.9854 53.1712 45.832C53.0121 45.6758 52.7678 45.5593 52.4382 45.4826L51.3473 45.2269C50.7479 45.0849 50.3075 44.8647 50.0263 44.5664C49.7479 44.2653 49.6087 43.8888 49.6087 43.4371C49.6087 43.0678 49.7124 42.7411 49.9197 42.457C50.13 42.1729 50.4155 41.9499 50.7763 41.788C51.1399 41.6261 51.5518 41.5451 52.0121 41.5451C52.6598 41.5451 53.1683 41.6871 53.5376 41.9712C53.9098 42.2553 54.174 42.6303 54.3303 43.0962ZM59.4748 48.1758V39.4485H62.4237C63.1055 39.4485 63.6651 39.565 64.1026 39.7979C64.5401 40.0281 64.864 40.3448 65.0742 40.7482C65.2844 41.1516 65.3896 41.6104 65.3896 42.1246C65.3896 42.6388 65.2844 43.0948 65.0742 43.4925C64.864 43.8903 64.5415 44.2028 64.1069 44.43C63.6722 44.6545 63.1168 44.7667 62.4407 44.7667H60.0543V43.8121H62.4066C62.8725 43.8121 63.2475 43.744 63.5316 43.6076C63.8185 43.4712 64.0259 43.2781 64.1538 43.0281C64.2844 42.7752 64.3498 42.4741 64.3498 42.1246C64.3498 41.7752 64.2844 41.4698 64.1538 41.2085C64.0231 40.9471 63.8143 40.7454 63.5273 40.6033C63.2404 40.4585 62.8612 40.386 62.3896 40.386H60.5316V48.1758H59.4748ZM63.5827 44.2553L65.7305 48.1758H64.5032L62.3896 44.2553H63.5827ZM69.6882 48.3121C69.0575 48.3121 68.5135 48.1729 68.0561 47.8945C67.6016 47.6133 67.2507 47.2212 67.0036 46.7184C66.7592 46.2127 66.6371 45.6246 66.6371 44.9542C66.6371 44.2837 66.7592 43.6928 67.0036 43.1815C67.2507 42.6673 67.5945 42.2667 68.0348 41.9798C68.478 41.69 68.995 41.5451 69.5859 41.5451C69.9268 41.5451 70.2635 41.6019 70.5959 41.7156C70.9283 41.8292 71.2308 42.0138 71.5036 42.2695C71.7763 42.5224 71.9936 42.8576 72.1555 43.2752C72.3175 43.6928 72.3984 44.207 72.3984 44.8178V45.244H67.353V44.3746H71.3757C71.3757 44.0053 71.3018 43.6758 71.1541 43.386C71.0092 43.0962 70.8018 42.8675 70.532 42.6999C70.2649 42.5323 69.9496 42.4485 69.5859 42.4485C69.1854 42.4485 68.8388 42.5479 68.5462 42.7468C68.2564 42.9428 68.0334 43.1985 67.8771 43.5138C67.7209 43.8292 67.6428 44.1673 67.6428 44.5281V45.1076C67.6428 45.6019 67.728 46.021 67.8984 46.3647C68.0717 46.7056 68.3118 46.9656 68.6186 47.1445C68.9254 47.3207 69.282 47.4087 69.6882 47.4087C69.9524 47.4087 70.1911 47.3718 70.4041 47.2979C70.62 47.2212 70.8061 47.1076 70.9624 46.957C71.1186 46.8036 71.2393 46.6133 71.3246 46.386L72.2962 46.6587C72.1939 46.9883 72.022 47.2781 71.7805 47.5281C71.5391 47.7752 71.2408 47.9684 70.8857 48.1076C70.5305 48.244 70.1314 48.3121 69.6882 48.3121ZM75.8544 48.3292C75.4396 48.3292 75.0632 48.2511 74.7251 48.0948C74.3871 47.9357 74.1186 47.707 73.9197 47.4087C73.7209 47.1076 73.6214 46.744 73.6214 46.3178C73.6214 45.9428 73.6953 45.6388 73.843 45.4059C73.9908 45.1701 74.1882 44.9854 74.4354 44.8519C74.6825 44.7184 74.9553 44.619 75.2536 44.5536C75.5547 44.4854 75.8572 44.4315 76.1612 44.3917C76.5589 44.3406 76.8814 44.3022 77.1286 44.2766C77.3786 44.2482 77.5604 44.2013 77.674 44.136C77.7905 44.0707 77.8487 43.957 77.8487 43.7951V43.761C77.8487 43.3406 77.7337 43.0138 77.5036 42.7809C77.2763 42.5479 76.9311 42.4315 76.468 42.4315C75.9879 42.4315 75.6115 42.5366 75.3388 42.7468C75.0661 42.957 74.8743 43.1815 74.7635 43.4201L73.8089 43.0792C73.9794 42.6815 74.2067 42.3718 74.4908 42.1502C74.7777 41.9258 75.0902 41.7695 75.4283 41.6815C75.7692 41.5906 76.1044 41.5451 76.4339 41.5451C76.6442 41.5451 76.8857 41.5707 77.1584 41.6218C77.4339 41.6701 77.6996 41.771 77.9553 41.9244C78.2138 42.0778 78.4283 42.3093 78.5987 42.619C78.7692 42.9286 78.8544 43.3434 78.8544 43.8633V48.1758H77.8487V47.2894H77.7976C77.7294 47.4315 77.6158 47.5835 77.4567 47.7454C77.2976 47.9073 77.0859 48.0451 76.8217 48.1587C76.5575 48.2724 76.2351 48.3292 75.8544 48.3292ZM76.0078 47.4258C76.4055 47.4258 76.7408 47.3477 77.0135 47.1914C77.2891 47.0352 77.4964 46.8335 77.6357 46.5863C77.7777 46.3391 77.8487 46.0792 77.8487 45.8065V44.886C77.8061 44.9371 77.7124 44.984 77.5675 45.0266C77.4254 45.0664 77.2607 45.1019 77.0732 45.1332C76.8885 45.1616 76.7081 45.1871 76.532 45.2099C76.3587 45.2298 76.218 45.2468 76.1101 45.261C75.8487 45.2951 75.6044 45.3505 75.3771 45.4272C75.1527 45.5011 74.9709 45.6133 74.8317 45.7638C74.6953 45.9116 74.6271 46.1133 74.6271 46.369C74.6271 46.7184 74.7564 46.9826 75.0149 47.1616C75.2763 47.3377 75.6072 47.4258 76.0078 47.4258ZM81.6957 39.4485V48.1758H80.69V39.4485H81.6957ZM83.5376 48.1758V41.6303H84.5433V48.1758H83.5376ZM84.049 40.5394C83.853 40.5394 83.6839 40.4727 83.5419 40.3391C83.4027 40.2056 83.3331 40.0451 83.3331 39.8576C83.3331 39.6701 83.4027 39.5096 83.5419 39.3761C83.6839 39.2425 83.853 39.1758 84.049 39.1758C84.245 39.1758 84.4126 39.2425 84.5518 39.3761C84.6939 39.5096 84.7649 39.6701 84.7649 39.8576C84.7649 40.0451 84.6939 40.2056 84.5518 40.3391C84.4126 40.4727 84.245 40.5394 84.049 40.5394ZM86.1978 48.1758V47.4087L89.9137 42.636V42.5678H86.3171V41.6303H91.2092V42.4315L87.5955 47.1701V47.2383H91.3285V48.1758H86.1978ZM94.8036 48.3292C94.3888 48.3292 94.0124 48.2511 93.6744 48.0948C93.3363 47.9357 93.0678 47.707 92.869 47.4087C92.6701 47.1076 92.5707 46.744 92.5707 46.3178C92.5707 45.9428 92.6445 45.6388 92.7923 45.4059C92.94 45.1701 93.1374 44.9854 93.3846 44.8519C93.6317 44.7184 93.9045 44.619 94.2028 44.5536C94.5039 44.4854 94.8065 44.4315 95.1104 44.3917C95.5082 44.3406 95.8306 44.3022 96.0778 44.2766C96.3278 44.2482 96.5096 44.2013 96.6232 44.136C96.7397 44.0707 96.7979 43.957 96.7979 43.7951V43.761C96.7979 43.3406 96.6829 43.0138 96.4528 42.7809C96.2255 42.5479 95.8803 42.4315 95.4173 42.4315C94.9371 42.4315 94.5607 42.5366 94.288 42.7468C94.0153 42.957 93.8235 43.1815 93.7127 43.4201L92.7582 43.0792C92.9286 42.6815 93.1559 42.3718 93.44 42.1502C93.7269 41.9258 94.0394 41.7695 94.3775 41.6815C94.7184 41.5906 95.0536 41.5451 95.3832 41.5451C95.5934 41.5451 95.8349 41.5707 96.1076 41.6218C96.3832 41.6701 96.6488 41.771 96.9045 41.9244C97.163 42.0778 97.3775 42.3093 97.5479 42.619C97.7184 42.9286 97.8036 43.3434 97.8036 43.8633V48.1758H96.7979V47.2894H96.7468C96.6786 47.4315 96.565 47.5835 96.4059 47.7454C96.2468 47.9073 96.0352 48.0451 95.771 48.1587C95.5067 48.2724 95.1843 48.3292 94.8036 48.3292ZM94.957 47.4258C95.3548 47.4258 95.69 47.3477 95.9627 47.1914C96.2383 47.0352 96.4457 46.8335 96.5849 46.5863C96.7269 46.3391 96.7979 46.0792 96.7979 45.8065V44.886C96.7553 44.9371 96.6616 44.984 96.5167 45.0266C96.3746 45.0664 96.2099 45.1019 96.0224 45.1332C95.8377 45.1616 95.6573 45.1871 95.4812 45.2099C95.3079 45.2298 95.1673 45.2468 95.0593 45.261C94.7979 45.2951 94.5536 45.3505 94.3263 45.4272C94.1019 45.5011 93.9201 45.6133 93.7809 45.7638C93.6445 45.9116 93.5763 46.1133 93.5763 46.369C93.5763 46.7184 93.7056 46.9826 93.9641 47.1616C94.2255 47.3377 94.5565 47.4258 94.957 47.4258ZM102.111 48.3121C101.565 48.3121 101.084 48.1744 100.666 47.8988C100.249 47.6204 99.9219 47.2283 99.6861 46.7227C99.4503 46.2141 99.3324 45.6133 99.3324 44.9201C99.3324 44.2326 99.4503 43.636 99.6861 43.1303C99.9219 42.6246 100.25 42.234 100.67 41.9585C101.091 41.6829 101.577 41.5451 102.128 41.5451C102.554 41.5451 102.891 41.6161 103.138 41.7582C103.388 41.8974 103.578 42.0565 103.709 42.2354C103.842 42.4116 103.946 42.5565 104.02 42.6701H104.105V39.4485H105.111V48.1758H104.139V47.1701H104.02C103.946 47.2894 103.841 47.44 103.705 47.6218C103.568 47.8008 103.374 47.9613 103.121 48.1033C102.868 48.2425 102.531 48.3121 102.111 48.3121ZM102.247 47.4087C102.651 47.4087 102.991 47.3036 103.27 47.0934C103.548 46.8803 103.76 46.5863 103.905 46.2113C104.05 45.8335 104.122 45.3974 104.122 44.9031C104.122 44.4144 104.051 43.9869 103.909 43.6204C103.767 43.2511 103.557 42.9641 103.278 42.7596C103 42.5522 102.656 42.4485 102.247 42.4485C101.821 42.4485 101.466 42.5579 101.182 42.7766C100.901 42.9925 100.689 43.2866 100.547 43.6587C100.408 44.0281 100.338 44.4428 100.338 44.9031C100.338 45.369 100.409 45.7923 100.551 46.1729C100.696 46.5508 100.909 46.8519 101.19 47.0763C101.474 47.2979 101.827 47.4087 102.247 47.4087ZM109.751 48.3121C109.161 48.3121 108.642 48.1715 108.196 47.8903C107.753 47.609 107.406 47.2156 107.156 46.7099C106.909 46.2042 106.786 45.6133 106.786 44.9371C106.786 44.2553 106.909 43.6602 107.156 43.1516C107.406 42.6431 107.753 42.2482 108.196 41.967C108.642 41.6857 109.161 41.5451 109.751 41.5451C110.342 41.5451 110.859 41.6857 111.303 41.967C111.749 42.2482 112.095 42.6431 112.342 43.1516C112.592 43.6602 112.717 44.2553 112.717 44.9371C112.717 45.6133 112.592 46.2042 112.342 46.7099C112.095 47.2156 111.749 47.609 111.303 47.8903C110.859 48.1715 110.342 48.3121 109.751 48.3121ZM109.751 47.4087C110.2 47.4087 110.57 47.2937 110.859 47.0636C111.149 46.8335 111.364 46.5309 111.503 46.1559C111.642 45.7809 111.712 45.3746 111.712 44.9371C111.712 44.4996 111.642 44.092 111.503 43.7141C111.364 43.3363 111.149 43.0309 110.859 42.7979C110.57 42.565 110.2 42.4485 109.751 42.4485C109.303 42.4485 108.933 42.565 108.643 42.7979C108.354 43.0309 108.139 43.3363 108 43.7141C107.861 44.092 107.791 44.4996 107.791 44.9371C107.791 45.3746 107.861 45.7809 108 46.1559C108.139 46.5309 108.354 46.8335 108.643 47.0636C108.933 47.2937 109.303 47.4087 109.751 47.4087ZM118.889 43.0962L117.985 43.3519C117.929 43.2013 117.845 43.055 117.734 42.913C117.626 42.7681 117.478 42.6488 117.291 42.555C117.103 42.4613 116.863 42.4144 116.571 42.4144C116.17 42.4144 115.836 42.5067 115.569 42.6914C115.305 42.8732 115.173 43.1048 115.173 43.386C115.173 43.636 115.264 43.8335 115.446 43.9783C115.627 44.1232 115.912 44.244 116.298 44.3406L117.27 44.5792C117.855 44.7212 118.291 44.9386 118.578 45.2312C118.865 45.521 119.008 45.8945 119.008 46.3519C119.008 46.7269 118.9 47.0621 118.684 47.3576C118.471 47.6531 118.173 47.886 117.789 48.0565C117.406 48.2269 116.96 48.3121 116.451 48.3121C115.784 48.3121 115.231 48.1673 114.794 47.8775C114.356 47.5877 114.079 47.1644 113.963 46.6076L114.917 46.369C115.008 46.7212 115.18 46.9854 115.433 47.1616C115.689 47.3377 116.022 47.4258 116.434 47.4258C116.903 47.4258 117.275 47.3263 117.551 47.1275C117.829 46.9258 117.968 46.6843 117.968 46.4031C117.968 46.1758 117.889 45.9854 117.73 45.832C117.571 45.6758 117.326 45.5593 116.997 45.4826L115.906 45.2269C115.306 45.0849 114.866 44.8647 114.585 44.5664C114.306 44.2653 114.167 43.8888 114.167 43.4371C114.167 43.0678 114.271 42.7411 114.478 42.457C114.689 42.1729 114.974 41.9499 115.335 41.788C115.699 41.6261 116.11 41.5451 116.571 41.5451C117.218 41.5451 117.727 41.6871 118.096 41.9712C118.468 42.2553 118.733 42.6303 118.889 43.0962ZM14.9169 69.4485V78.1758H13.8601V70.5565H13.8089L11.6783 71.9712V70.8974L13.8601 69.4485H14.9169ZM20.2734 78.2951C19.6314 78.2951 19.0845 78.1204 18.6328 77.771C18.1811 77.4187 17.8359 76.9087 17.5973 76.2411C17.3587 75.5707 17.2393 74.761 17.2393 73.8121C17.2393 72.869 17.3587 72.0636 17.5973 71.396C17.8388 70.7255 18.1854 70.2141 18.6371 69.8619C19.0916 69.5067 19.6371 69.3292 20.2734 69.3292C20.9098 69.3292 21.4538 69.5067 21.9055 69.8619C22.3601 70.2141 22.7067 70.7255 22.9453 71.396C23.1868 72.0636 23.3075 72.869 23.3075 73.8121C23.3075 74.761 23.1882 75.5707 22.9496 76.2411C22.7109 76.9087 22.3658 77.4187 21.9141 77.771C21.4624 78.1204 20.9155 78.2951 20.2734 78.2951ZM20.2734 77.3576C20.9098 77.3576 21.4041 77.0508 21.7564 76.4371C22.1087 75.8235 22.2848 74.9485 22.2848 73.8121C22.2848 73.0565 22.2038 72.413 22.0419 71.8817C21.8828 71.3505 21.6527 70.9457 21.3516 70.6673C21.0533 70.3888 20.6939 70.2496 20.2734 70.2496C19.6428 70.2496 19.1499 70.5607 18.7947 71.1829C18.4396 71.8022 18.2621 72.6786 18.2621 73.8121C18.2621 74.5678 18.3416 75.2099 18.5007 75.7383C18.6598 76.2667 18.8885 76.6687 19.1868 76.9442C19.4879 77.2198 19.8501 77.3576 20.2734 77.3576ZM27.7734 78.2951C27.1314 78.2951 26.5845 78.1204 26.1328 77.771C25.6811 77.4187 25.3359 76.9087 25.0973 76.2411C24.8587 75.5707 24.7393 74.761 24.7393 73.8121C24.7393 72.869 24.8587 72.0636 25.0973 71.396C25.3388 70.7255 25.6854 70.2141 26.1371 69.8619C26.5916 69.5067 27.1371 69.3292 27.7734 69.3292C28.4098 69.3292 28.9538 69.5067 29.4055 69.8619C29.8601 70.2141 30.2067 70.7255 30.4453 71.396C30.6868 72.0636 30.8075 72.869 30.8075 73.8121C30.8075 74.761 30.6882 75.5707 30.4496 76.2411C30.2109 76.9087 29.8658 77.4187 29.4141 77.771C28.9624 78.1204 28.4155 78.2951 27.7734 78.2951ZM27.7734 77.3576C28.4098 77.3576 28.9041 77.0508 29.2564 76.4371C29.6087 75.8235 29.7848 74.9485 29.7848 73.8121C29.7848 73.0565 29.7038 72.413 29.5419 71.8817C29.3828 71.3505 29.1527 70.9457 28.8516 70.6673C28.5533 70.3888 28.1939 70.2496 27.7734 70.2496C27.1428 70.2496 26.6499 70.5607 26.2947 71.1829C25.9396 71.8022 25.7621 72.6786 25.7621 73.8121C25.7621 74.5678 25.8416 75.2099 26.0007 75.7383C26.1598 76.2667 26.3885 76.6687 26.6868 76.9442C26.9879 77.2198 27.3501 77.3576 27.7734 77.3576Z" fill="#989898"/>
<path d="M170.525 40.386V39.4485H177.07V40.386H174.326V48.1758H173.269V40.386H170.525ZM180.36 48.3121C179.729 48.3121 179.185 48.1729 178.728 47.8945C178.273 47.6133 177.923 47.2212 177.675 46.7184C177.431 46.2127 177.309 45.6246 177.309 44.9542C177.309 44.2837 177.431 43.6928 177.675 43.1815C177.923 42.6673 178.266 42.2667 178.707 41.9798C179.15 41.69 179.667 41.5451 180.258 41.5451C180.599 41.5451 180.935 41.6019 181.268 41.7156C181.6 41.8292 181.903 42.0138 182.175 42.2695C182.448 42.5224 182.665 42.8576 182.827 43.2752C182.989 43.6928 183.07 44.207 183.07 44.8178V45.244H178.025V44.3746H182.048C182.048 44.0053 181.974 43.6758 181.826 43.386C181.681 43.0962 181.474 42.8675 181.204 42.6999C180.937 42.5323 180.621 42.4485 180.258 42.4485C179.857 42.4485 179.511 42.5479 179.218 42.7468C178.928 42.9428 178.705 43.1985 178.549 43.5138C178.393 43.8292 178.315 44.1673 178.315 44.5281V45.1076C178.315 45.6019 178.4 46.021 178.57 46.3647C178.744 46.7056 178.984 46.9656 179.29 47.1445C179.597 47.3207 179.954 47.4087 180.36 47.4087C180.624 47.4087 180.863 47.3718 181.076 47.2979C181.292 47.2212 181.478 47.1076 181.634 46.957C181.79 46.8036 181.911 46.6133 181.996 46.386L182.968 46.6587C182.866 46.9883 182.694 47.2781 182.452 47.5281C182.211 47.7752 181.913 47.9684 181.558 48.1076C181.202 48.244 180.803 48.3121 180.36 48.3121ZM189.237 43.0962L188.333 43.3519C188.276 43.2013 188.192 43.055 188.082 42.913C187.974 42.7681 187.826 42.6488 187.638 42.555C187.451 42.4613 187.211 42.4144 186.918 42.4144C186.518 42.4144 186.184 42.5067 185.917 42.6914C185.653 42.8732 185.521 43.1048 185.521 43.386C185.521 43.636 185.612 43.8335 185.793 43.9783C185.975 44.1232 186.259 44.244 186.646 44.3406L187.617 44.5792C188.202 44.7212 188.638 44.9386 188.925 45.2312C189.212 45.521 189.356 45.8945 189.356 46.3519C189.356 46.7269 189.248 47.0621 189.032 47.3576C188.819 47.6531 188.521 47.886 188.137 48.0565C187.754 48.2269 187.308 48.3121 186.799 48.3121C186.131 48.3121 185.579 48.1673 185.141 47.8775C184.704 47.5877 184.427 47.1644 184.31 46.6076L185.265 46.369C185.356 46.7212 185.528 46.9854 185.781 47.1616C186.036 47.3377 186.37 47.4258 186.782 47.4258C187.251 47.4258 187.623 47.3263 187.898 47.1275C188.177 46.9258 188.316 46.6843 188.316 46.4031C188.316 46.1758 188.237 45.9854 188.077 45.832C187.918 45.6758 187.674 45.5593 187.344 45.4826L186.254 45.2269C185.654 45.0849 185.214 44.8647 184.933 44.5664C184.654 44.2653 184.515 43.8888 184.515 43.4371C184.515 43.0678 184.619 42.7411 184.826 42.457C185.036 42.1729 185.322 41.9499 185.683 41.788C186.046 41.6261 186.458 41.5451 186.918 41.5451C187.566 41.5451 188.075 41.6871 188.444 41.9712C188.816 42.2553 189.08 42.6303 189.237 43.0962ZM193.716 41.6303V42.4826H190.324V41.6303H193.716ZM191.313 40.0621H192.319V46.3008C192.319 46.5849 192.36 46.7979 192.442 46.94C192.527 47.0792 192.635 47.1729 192.766 47.2212C192.9 47.2667 193.04 47.2894 193.188 47.2894C193.299 47.2894 193.39 47.2837 193.461 47.2724C193.532 47.2582 193.588 47.2468 193.631 47.2383L193.836 48.1417C193.767 48.1673 193.672 48.1928 193.55 48.2184C193.428 48.2468 193.273 48.261 193.086 48.261C192.801 48.261 192.523 48.1999 192.25 48.0778C191.98 47.9556 191.756 47.7695 191.577 47.5195C191.401 47.2695 191.313 46.9542 191.313 46.5735V40.0621ZM197.903 48.3121C197.272 48.3121 196.728 48.1729 196.271 47.8945C195.816 47.6133 195.466 47.2212 195.218 46.7184C194.974 46.2127 194.852 45.6246 194.852 44.9542C194.852 44.2837 194.974 43.6928 195.218 43.1815C195.466 42.6673 195.809 42.2667 196.25 41.9798C196.693 41.69 197.21 41.5451 197.801 41.5451C198.142 41.5451 198.478 41.6019 198.811 41.7156C199.143 41.8292 199.446 42.0138 199.718 42.2695C199.991 42.5224 200.208 42.8576 200.37 43.2752C200.532 43.6928 200.613 44.207 200.613 44.8178V45.244H195.568V44.3746H199.591C199.591 44.0053 199.517 43.6758 199.369 43.386C199.224 43.0962 199.017 42.8675 198.747 42.6999C198.48 42.5323 198.164 42.4485 197.801 42.4485C197.4 42.4485 197.054 42.5479 196.761 42.7468C196.471 42.9428 196.248 43.1985 196.092 43.5138C195.936 43.8292 195.858 44.1673 195.858 44.5281V45.1076C195.858 45.6019 195.943 46.021 196.113 46.3647C196.287 46.7056 196.527 46.9656 196.833 47.1445C197.14 47.3207 197.497 47.4087 197.903 47.4087C198.167 47.4087 198.406 47.3718 198.619 47.2979C198.835 47.2212 199.021 47.1076 199.177 46.957C199.333 46.8036 199.454 46.6133 199.539 46.386L200.511 46.6587C200.409 46.9883 200.237 47.2781 199.995 47.5281C199.754 47.7752 199.456 47.9684 199.1 48.1076C198.745 48.244 198.346 48.3121 197.903 48.3121ZM206.779 43.0962L205.876 43.3519C205.819 43.2013 205.735 43.055 205.625 42.913C205.517 42.7681 205.369 42.6488 205.181 42.555C204.994 42.4613 204.754 42.4144 204.461 42.4144C204.061 42.4144 203.727 42.5067 203.46 42.6914C203.196 42.8732 203.064 43.1048 203.064 43.386C203.064 43.636 203.154 43.8335 203.336 43.9783C203.518 44.1232 203.802 44.244 204.189 44.3406L205.16 44.5792C205.745 44.7212 206.181 44.9386 206.468 45.2312C206.755 45.521 206.899 45.8945 206.899 46.3519C206.899 46.7269 206.791 47.0621 206.575 47.3576C206.362 47.6531 206.064 47.886 205.68 48.0565C205.297 48.2269 204.85 48.3121 204.342 48.3121C203.674 48.3121 203.122 48.1673 202.684 47.8775C202.247 47.5877 201.97 47.1644 201.853 46.6076L202.808 46.369C202.899 46.7212 203.071 46.9854 203.324 47.1616C203.579 47.3377 203.913 47.4258 204.325 47.4258C204.794 47.4258 205.166 47.3263 205.441 47.1275C205.72 46.9258 205.859 46.6843 205.859 46.4031C205.859 46.1758 205.779 45.9854 205.62 45.832C205.461 45.6758 205.217 45.5593 204.887 45.4826L203.797 45.2269C203.197 45.0849 202.757 44.8647 202.475 44.5664C202.197 44.2653 202.058 43.8888 202.058 43.4371C202.058 43.0678 202.162 42.7411 202.369 42.457C202.579 42.1729 202.865 41.9499 203.225 41.788C203.589 41.6261 204.001 41.5451 204.461 41.5451C205.109 41.5451 205.618 41.6871 205.987 41.9712C206.359 42.2553 206.623 42.6303 206.779 43.0962ZM211.924 48.1758V39.4485H214.873C215.555 39.4485 216.114 39.565 216.552 39.7979C216.989 40.0281 217.313 40.3448 217.523 40.7482C217.734 41.1516 217.839 41.6104 217.839 42.1246C217.839 42.6388 217.734 43.0948 217.523 43.4925C217.313 43.8903 216.991 44.2028 216.556 44.43C216.121 44.6545 215.566 44.7667 214.89 44.7667H212.504V43.8121H214.856C215.322 43.8121 215.697 43.744 215.981 43.6076C216.268 43.4712 216.475 43.2781 216.603 43.0281C216.734 42.7752 216.799 42.4741 216.799 42.1246C216.799 41.7752 216.734 41.4698 216.603 41.2085C216.472 40.9471 216.263 40.7454 215.977 40.6033C215.69 40.4585 215.31 40.386 214.839 40.386H212.981V48.1758H211.924ZM216.032 44.2553L218.18 48.1758H216.952L214.839 44.2553H216.032ZM222.137 48.3121C221.507 48.3121 220.963 48.1729 220.505 47.8945C220.051 47.6133 219.7 47.2212 219.453 46.7184C219.208 46.2127 219.086 45.6246 219.086 44.9542C219.086 44.2837 219.208 43.6928 219.453 43.1815C219.7 42.6673 220.044 42.2667 220.484 41.9798C220.927 41.69 221.444 41.5451 222.035 41.5451C222.376 41.5451 222.713 41.6019 223.045 41.7156C223.377 41.8292 223.68 42.0138 223.953 42.2695C224.225 42.5224 224.443 42.8576 224.605 43.2752C224.767 43.6928 224.848 44.207 224.848 44.8178V45.244H219.802V44.3746H223.825C223.825 44.0053 223.751 43.6758 223.603 43.386C223.458 43.0962 223.251 42.8675 222.981 42.6999C222.714 42.5323 222.399 42.4485 222.035 42.4485C221.635 42.4485 221.288 42.5479 220.995 42.7468C220.706 42.9428 220.483 43.1985 220.326 43.5138C220.17 43.8292 220.092 44.1673 220.092 44.5281V45.1076C220.092 45.6019 220.177 46.021 220.348 46.3647C220.521 46.7056 220.761 46.9656 221.068 47.1445C221.375 47.3207 221.731 47.4087 222.137 47.4087C222.402 47.4087 222.64 47.3718 222.853 47.2979C223.069 47.2212 223.255 47.1076 223.412 46.957C223.568 46.8036 223.689 46.6133 223.774 46.386L224.745 46.6587C224.643 46.9883 224.471 47.2781 224.23 47.5281C223.988 47.7752 223.69 47.9684 223.335 48.1076C222.98 48.244 222.581 48.3121 222.137 48.3121ZM228.304 48.3292C227.889 48.3292 227.512 48.2511 227.174 48.0948C226.836 47.9357 226.568 47.707 226.369 47.4087C226.17 47.1076 226.071 46.744 226.071 46.3178C226.071 45.9428 226.145 45.6388 226.292 45.4059C226.44 45.1701 226.637 44.9854 226.885 44.8519C227.132 44.7184 227.404 44.619 227.703 44.5536C228.004 44.4854 228.306 44.4315 228.61 44.3917C229.008 44.3406 229.331 44.3022 229.578 44.2766C229.828 44.2482 230.01 44.2013 230.123 44.136C230.24 44.0707 230.298 43.957 230.298 43.7951V43.761C230.298 43.3406 230.183 43.0138 229.953 42.7809C229.725 42.5479 229.38 42.4315 228.917 42.4315C228.437 42.4315 228.061 42.5366 227.788 42.7468C227.515 42.957 227.324 43.1815 227.213 43.4201L226.258 43.0792C226.429 42.6815 226.656 42.3718 226.94 42.1502C227.227 41.9258 227.539 41.7695 227.877 41.6815C228.218 41.5906 228.554 41.5451 228.883 41.5451C229.093 41.5451 229.335 41.5707 229.608 41.6218C229.883 41.6701 230.149 41.771 230.404 41.9244C230.663 42.0778 230.877 42.3093 231.048 42.619C231.218 42.9286 231.304 43.3434 231.304 43.8633V48.1758H230.298V47.2894H230.247C230.179 47.4315 230.065 47.5835 229.906 47.7454C229.747 47.9073 229.535 48.0451 229.271 48.1587C229.007 48.2724 228.684 48.3292 228.304 48.3292ZM228.457 47.4258C228.855 47.4258 229.19 47.3477 229.463 47.1914C229.738 47.0352 229.946 46.8335 230.085 46.5863C230.227 46.3391 230.298 46.0792 230.298 45.8065V44.886C230.255 44.9371 230.162 44.984 230.017 45.0266C229.875 45.0664 229.71 45.1019 229.522 45.1332C229.338 45.1616 229.157 45.1871 228.981 45.2099C228.808 45.2298 228.667 45.2468 228.559 45.261C228.298 45.2951 228.054 45.3505 227.826 45.4272C227.602 45.5011 227.42 45.6133 227.281 45.7638C227.145 45.9116 227.076 46.1133 227.076 46.369C227.076 46.7184 227.206 46.9826 227.464 47.1616C227.725 47.3377 228.056 47.4258 228.457 47.4258ZM234.145 39.4485V48.1758H233.139V39.4485H234.145ZM235.987 48.1758V41.6303H236.993V48.1758H235.987ZM236.498 40.5394C236.302 40.5394 236.133 40.4727 235.991 40.3391C235.852 40.2056 235.782 40.0451 235.782 39.8576C235.782 39.6701 235.852 39.5096 235.991 39.3761C236.133 39.2425 236.302 39.1758 236.498 39.1758C236.694 39.1758 236.862 39.2425 237.001 39.3761C237.143 39.5096 237.214 39.6701 237.214 39.8576C237.214 40.0451 237.143 40.2056 237.001 40.3391C236.862 40.4727 236.694 40.5394 236.498 40.5394ZM238.647 48.1758V47.4087L242.363 42.636V42.5678H238.766V41.6303H243.658V42.4315L240.045 47.1701V47.2383H243.778V48.1758H238.647ZM247.253 48.3292C246.838 48.3292 246.462 48.2511 246.124 48.0948C245.786 47.9357 245.517 47.707 245.318 47.4087C245.119 47.1076 245.02 46.744 245.02 46.3178C245.02 45.9428 245.094 45.6388 245.241 45.4059C245.389 45.1701 245.587 44.9854 245.834 44.8519C246.081 44.7184 246.354 44.619 246.652 44.5536C246.953 44.4854 247.256 44.4315 247.56 44.3917C247.957 44.3406 248.28 44.3022 248.527 44.2766C248.777 44.2482 248.959 44.2013 249.072 44.136C249.189 44.0707 249.247 43.957 249.247 43.7951V43.761C249.247 43.3406 249.132 43.0138 248.902 42.7809C248.675 42.5479 248.33 42.4315 247.866 42.4315C247.386 42.4315 247.01 42.5366 246.737 42.7468C246.464 42.957 246.273 43.1815 246.162 43.4201L245.207 43.0792C245.378 42.6815 245.605 42.3718 245.889 42.1502C246.176 41.9258 246.489 41.7695 246.827 41.6815C247.168 41.5906 247.503 41.5451 247.832 41.5451C248.043 41.5451 248.284 41.5707 248.557 41.6218C248.832 41.6701 249.098 41.771 249.354 41.9244C249.612 42.0778 249.827 42.3093 249.997 42.619C250.168 42.9286 250.253 43.3434 250.253 43.8633V48.1758H249.247V47.2894H249.196C249.128 47.4315 249.014 47.5835 248.855 47.7454C248.696 47.9073 248.484 48.0451 248.22 48.1587C247.956 48.2724 247.634 48.3292 247.253 48.3292ZM247.406 47.4258C247.804 47.4258 248.139 47.3477 248.412 47.1914C248.688 47.0352 248.895 46.8335 249.034 46.5863C249.176 46.3391 249.247 46.0792 249.247 45.8065V44.886C249.205 44.9371 249.111 44.984 248.966 45.0266C248.824 45.0664 248.659 45.1019 248.472 45.1332C248.287 45.1616 248.107 45.1871 247.93 45.2099C247.757 45.2298 247.616 45.2468 247.509 45.261C247.247 45.2951 247.003 45.3505 246.776 45.4272C246.551 45.5011 246.369 45.6133 246.23 45.7638C246.094 45.9116 246.026 46.1133 246.026 46.369C246.026 46.7184 246.155 46.9826 246.413 47.1616C246.675 47.3377 247.006 47.4258 247.406 47.4258ZM254.56 48.3121C254.015 48.3121 253.533 48.1744 253.115 47.8988C252.698 47.6204 252.371 47.2283 252.135 46.7227C251.9 46.2141 251.782 45.6133 251.782 44.9201C251.782 44.2326 251.9 43.636 252.135 43.1303C252.371 42.6246 252.699 42.234 253.12 41.9585C253.54 41.6829 254.026 41.5451 254.577 41.5451C255.003 41.5451 255.34 41.6161 255.587 41.7582C255.837 41.8974 256.027 42.0565 256.158 42.2354C256.292 42.4116 256.395 42.5565 256.469 42.6701H256.554V39.4485H257.56V48.1758H256.588V47.1701H256.469C256.395 47.2894 256.29 47.44 256.154 47.6218C256.017 47.8008 255.823 47.9613 255.57 48.1033C255.317 48.2425 254.98 48.3121 254.56 48.3121ZM254.696 47.4087C255.1 47.4087 255.441 47.3036 255.719 47.0934C255.998 46.8803 256.209 46.5863 256.354 46.2113C256.499 45.8335 256.571 45.3974 256.571 44.9031C256.571 44.4144 256.5 43.9869 256.358 43.6204C256.216 43.2511 256.006 42.9641 255.728 42.7596C255.449 42.5522 255.105 42.4485 254.696 42.4485C254.27 42.4485 253.915 42.5579 253.631 42.7766C253.35 42.9925 253.138 43.2866 252.996 43.6587C252.857 44.0281 252.787 44.4428 252.787 44.9031C252.787 45.369 252.858 45.7923 253 46.1729C253.145 46.5508 253.358 46.8519 253.64 47.0763C253.924 47.2979 254.276 47.4087 254.696 47.4087ZM262.201 48.3121C261.61 48.3121 261.091 48.1715 260.645 47.8903C260.202 47.609 259.855 47.2156 259.605 46.7099C259.358 46.2042 259.235 45.6133 259.235 44.9371C259.235 44.2553 259.358 43.6602 259.605 43.1516C259.855 42.6431 260.202 42.2482 260.645 41.967C261.091 41.6857 261.61 41.5451 262.201 41.5451C262.792 41.5451 263.309 41.6857 263.752 41.967C264.198 42.2482 264.544 42.6431 264.792 43.1516C265.042 43.6602 265.167 44.2553 265.167 44.9371C265.167 45.6133 265.042 46.2042 264.792 46.7099C264.544 47.2156 264.198 47.609 263.752 47.8903C263.309 48.1715 262.792 48.3121 262.201 48.3121ZM262.201 47.4087C262.65 47.4087 263.019 47.2937 263.309 47.0636C263.598 46.8335 263.813 46.5309 263.952 46.1559C264.091 45.7809 264.161 45.3746 264.161 44.9371C264.161 44.4996 264.091 44.092 263.952 43.7141C263.813 43.3363 263.598 43.0309 263.309 42.7979C263.019 42.565 262.65 42.4485 262.201 42.4485C261.752 42.4485 261.382 42.565 261.093 42.7979C260.803 43.0309 260.588 43.3363 260.449 43.7141C260.31 44.092 260.24 44.4996 260.24 44.9371C260.24 45.3746 260.31 45.7809 260.449 46.1559C260.588 46.5309 260.803 46.8335 261.093 47.0636C261.382 47.2937 261.752 47.4087 262.201 47.4087ZM271.338 43.0962L270.435 43.3519C270.378 43.2013 270.294 43.055 270.183 42.913C270.075 42.7681 269.928 42.6488 269.74 42.555C269.553 42.4613 269.312 42.4144 269.02 42.4144C268.619 42.4144 268.286 42.5067 268.018 42.6914C267.754 42.8732 267.622 43.1048 267.622 43.386C267.622 43.636 267.713 43.8335 267.895 43.9783C268.077 44.1232 268.361 44.244 268.747 44.3406L269.719 44.5792C270.304 44.7212 270.74 44.9386 271.027 45.2312C271.314 45.521 271.457 45.8945 271.457 46.3519C271.457 46.7269 271.349 47.0621 271.134 47.3576C270.92 47.6531 270.622 47.886 270.239 48.0565C269.855 48.2269 269.409 48.3121 268.901 48.3121C268.233 48.3121 267.68 48.1673 267.243 47.8775C266.805 47.5877 266.528 47.1644 266.412 46.6076L267.366 46.369C267.457 46.7212 267.629 46.9854 267.882 47.1616C268.138 47.3377 268.472 47.4258 268.884 47.4258C269.352 47.4258 269.724 47.3263 270 47.1275C270.278 46.9258 270.418 46.6843 270.418 46.4031C270.418 46.1758 270.338 45.9854 270.179 45.832C270.02 45.6758 269.776 45.5593 269.446 45.4826L268.355 45.2269C267.756 45.0849 267.315 44.8647 267.034 44.5664C266.756 44.2653 266.616 43.8888 266.616 43.4371C266.616 43.0678 266.72 42.7411 266.928 42.457C267.138 42.1729 267.423 41.9499 267.784 41.788C268.148 41.6261 268.56 41.5451 269.02 41.5451C269.668 41.5451 270.176 41.6871 270.545 41.9712C270.918 42.2553 271.182 42.6303 271.338 43.0962ZM173.917 69.4485V78.1758H172.86V70.5565H172.809L170.678 71.9712V70.8974L172.86 69.4485H173.917ZM179.273 78.2951C178.631 78.2951 178.085 78.1204 177.633 77.771C177.181 77.4187 176.836 76.9087 176.597 76.2411C176.359 75.5707 176.239 74.761 176.239 73.8121C176.239 72.869 176.359 72.0636 176.597 71.396C176.839 70.7255 177.185 70.2141 177.637 69.8619C178.092 69.5067 178.637 69.3292 179.273 69.3292C179.91 69.3292 180.454 69.5067 180.906 69.8619C181.36 70.2141 181.707 70.7255 181.945 71.396C182.187 72.0636 182.308 72.869 182.308 73.8121C182.308 74.761 182.188 75.5707 181.95 76.2411C181.711 76.9087 181.366 77.4187 180.914 77.771C180.462 78.1204 179.915 78.2951 179.273 78.2951ZM179.273 77.3576C179.91 77.3576 180.404 77.0508 180.756 76.4371C181.109 75.8235 181.285 74.9485 181.285 73.8121C181.285 73.0565 181.204 72.413 181.042 71.8817C180.883 71.3505 180.653 70.9457 180.352 70.6673C180.053 70.3888 179.694 70.2496 179.273 70.2496C178.643 70.2496 178.15 70.5607 177.795 71.1829C177.44 71.8022 177.262 72.6786 177.262 73.8121C177.262 74.5678 177.342 75.2099 177.501 75.7383C177.66 76.2667 177.888 76.6687 178.187 76.9442C178.488 77.2198 178.85 77.3576 179.273 77.3576ZM186.773 78.2951C186.131 78.2951 185.585 78.1204 185.133 77.771C184.681 77.4187 184.336 76.9087 184.097 76.2411C183.859 75.5707 183.739 74.761 183.739 73.8121C183.739 72.869 183.859 72.0636 184.097 71.396C184.339 70.7255 184.685 70.2141 185.137 69.8619C185.592 69.5067 186.137 69.3292 186.773 69.3292C187.41 69.3292 187.954 69.5067 188.406 69.8619C188.86 70.2141 189.207 70.7255 189.445 71.396C189.687 72.0636 189.808 72.869 189.808 73.8121C189.808 74.761 189.688 75.5707 189.45 76.2411C189.211 76.9087 188.866 77.4187 188.414 77.771C187.962 78.1204 187.415 78.2951 186.773 78.2951ZM186.773 77.3576C187.41 77.3576 187.904 77.0508 188.256 76.4371C188.609 75.8235 188.785 74.9485 188.785 73.8121C188.785 73.0565 188.704 72.413 188.542 71.8817C188.383 71.3505 188.153 70.9457 187.852 70.6673C187.553 70.3888 187.194 70.2496 186.773 70.2496C186.143 70.2496 185.65 70.5607 185.295 71.1829C184.94 71.8022 184.762 72.6786 184.762 73.8121C184.762 74.5678 184.842 75.2099 185.001 75.7383C185.16 76.2667 185.388 76.6687 185.687 76.9442C185.988 77.2198 186.35 77.3576 186.773 77.3576Z" fill="#989898"/>
<rect x="513.945" y="107.676" width="11" height="11" rx="1.5" fill="#36D759"/>
<path d="M515.91 113.764L518.243 115.951L522.91 110.118" stroke="white" stroke-width="1.5" stroke-linejoin="round"/>
<rect x="513.945" y="107.676" width="11" height="11" rx="1.5" stroke="#36D759"/>
<path d="M534.678 118.176V107.994H540.823V109.088H535.911V112.528H540.505V113.622H535.911V117.082H540.903V118.176H534.678ZM543.761 110.539L545.591 113.662L547.42 110.539H548.773L546.307 114.358L548.773 118.176H547.42L545.591 115.213L543.761 118.176H542.409L544.835 114.358L542.409 110.539H543.761ZM552.694 118.355C552.21 118.355 551.771 118.264 551.377 118.081C550.982 117.896 550.669 117.629 550.437 117.281C550.205 116.93 550.089 116.505 550.089 116.008C550.089 115.571 550.175 115.216 550.347 114.944C550.52 114.669 550.75 114.454 551.039 114.298C551.327 114.142 551.645 114.026 551.993 113.95C552.344 113.87 552.697 113.807 553.052 113.761C553.516 113.701 553.892 113.657 554.181 113.627C554.472 113.594 554.684 113.539 554.817 113.463C554.953 113.386 555.021 113.254 555.021 113.065V113.025C555.021 112.535 554.887 112.154 554.618 111.882C554.353 111.61 553.95 111.474 553.41 111.474C552.85 111.474 552.411 111.597 552.093 111.842C551.774 112.087 551.551 112.349 551.421 112.627L550.308 112.23C550.507 111.766 550.772 111.404 551.103 111.146C551.438 110.884 551.802 110.702 552.197 110.599C552.595 110.493 552.986 110.44 553.37 110.44C553.615 110.44 553.897 110.47 554.215 110.529C554.537 110.586 554.847 110.703 555.145 110.882C555.447 111.061 555.697 111.332 555.896 111.693C556.095 112.054 556.194 112.538 556.194 113.145V118.176H555.021V117.142H554.961C554.882 117.307 554.749 117.485 554.563 117.674C554.378 117.863 554.131 118.023 553.823 118.156C553.514 118.288 553.138 118.355 552.694 118.355ZM552.873 117.301C553.337 117.301 553.728 117.21 554.046 117.027C554.368 116.845 554.61 116.61 554.772 116.321C554.938 116.033 555.021 115.73 555.021 115.412V114.338C554.971 114.397 554.862 114.452 554.693 114.502C554.527 114.548 554.335 114.59 554.116 114.626C553.901 114.659 553.69 114.689 553.485 114.716C553.282 114.739 553.118 114.759 552.992 114.775C552.687 114.815 552.402 114.88 552.137 114.969C551.875 115.055 551.663 115.186 551.501 115.362C551.342 115.534 551.262 115.77 551.262 116.068C551.262 116.475 551.413 116.784 551.715 116.993C552.02 117.198 552.406 117.301 552.873 117.301ZM558.336 118.176V110.539H559.469V111.733H559.569C559.728 111.325 559.984 111.008 560.339 110.783C560.694 110.554 561.12 110.44 561.617 110.44C562.121 110.44 562.54 110.554 562.875 110.783C563.213 111.008 563.476 111.325 563.665 111.733H563.745C563.94 111.338 564.234 111.025 564.625 110.793C565.016 110.558 565.485 110.44 566.032 110.44C566.714 110.44 567.273 110.654 567.707 111.081C568.141 111.506 568.358 112.167 568.358 113.065V118.176H567.185V113.065C567.185 112.502 567.031 112.099 566.723 111.857C566.414 111.615 566.051 111.494 565.634 111.494C565.097 111.494 564.681 111.656 564.386 111.981C564.091 112.303 563.944 112.71 563.944 113.204V118.176H562.75V112.946C562.75 112.511 562.609 112.162 562.328 111.897C562.046 111.628 561.683 111.494 561.239 111.494C560.934 111.494 560.649 111.575 560.384 111.738C560.122 111.9 559.91 112.125 559.748 112.414C559.588 112.699 559.509 113.029 559.509 113.403V118.176H558.336ZM573.705 118.335C572.969 118.335 572.335 118.172 571.801 117.848C571.271 117.52 570.862 117.062 570.573 116.475C570.288 115.886 570.146 115.199 570.146 114.417C570.146 113.635 570.288 112.946 570.573 112.349C570.862 111.749 571.263 111.282 571.776 110.947C572.293 110.609 572.897 110.44 573.586 110.44C573.984 110.44 574.376 110.506 574.764 110.639C575.152 110.771 575.505 110.987 575.823 111.285C576.141 111.58 576.395 111.971 576.584 112.458C576.773 112.946 576.867 113.546 576.867 114.258V114.755H570.981V113.741H575.674C575.674 113.31 575.588 112.926 575.415 112.588C575.246 112.25 575.004 111.983 574.69 111.787C574.378 111.592 574.01 111.494 573.586 111.494C573.119 111.494 572.714 111.61 572.373 111.842C572.035 112.071 571.775 112.369 571.592 112.737C571.41 113.105 571.319 113.499 571.319 113.92V114.596C571.319 115.173 571.418 115.662 571.617 116.063C571.819 116.461 572.099 116.764 572.457 116.973C572.815 117.178 573.231 117.281 573.705 117.281C574.013 117.281 574.292 117.238 574.54 117.152C574.792 117.062 575.009 116.93 575.192 116.754C575.374 116.575 575.515 116.353 575.614 116.088L576.748 116.406C576.629 116.79 576.428 117.128 576.146 117.42C575.865 117.708 575.517 117.934 575.102 118.096C574.688 118.255 574.222 118.335 573.705 118.335ZM584.061 112.25L583.007 112.548C582.941 112.372 582.843 112.202 582.714 112.036C582.588 111.867 582.415 111.728 582.197 111.618C581.978 111.509 581.698 111.454 581.357 111.454C580.889 111.454 580.5 111.562 580.188 111.777C579.88 111.989 579.726 112.26 579.726 112.588C579.726 112.879 579.832 113.11 580.044 113.279C580.256 113.448 580.588 113.589 581.038 113.701L582.172 113.98C582.855 114.145 583.363 114.399 583.698 114.74C584.033 115.078 584.2 115.514 584.2 116.048C584.2 116.485 584.074 116.877 583.822 117.221C583.574 117.566 583.226 117.838 582.778 118.037C582.331 118.235 581.811 118.335 581.217 118.335C580.438 118.335 579.794 118.166 579.283 117.828C578.773 117.49 578.45 116.996 578.314 116.346L579.428 116.068C579.534 116.479 579.734 116.787 580.029 116.993C580.327 117.198 580.717 117.301 581.197 117.301C581.744 117.301 582.179 117.185 582.5 116.953C582.825 116.717 582.987 116.436 582.987 116.108C582.987 115.842 582.894 115.62 582.709 115.441C582.523 115.259 582.238 115.123 581.854 115.034L580.581 114.735C579.882 114.57 579.368 114.313 579.04 113.965C578.715 113.614 578.553 113.174 578.553 112.647C578.553 112.217 578.674 111.835 578.915 111.504C579.161 111.172 579.494 110.912 579.915 110.723C580.339 110.534 580.82 110.44 581.357 110.44C582.112 110.44 582.705 110.606 583.136 110.937C583.571 111.269 583.879 111.706 584.061 112.25Z" fill="#989898"/>
<rect x="660.945" y="107.676" width="11" height="11" rx="1.5" fill="#F32F2F"/>
<path d="M662.91 113.764L665.243 115.951L669.91 110.118" stroke="white" stroke-width="1.5" stroke-linejoin="round"/>
<rect x="660.945" y="107.676" width="11" height="11" rx="1.5" stroke="#F32F2F"/>
<path d="M681.121 109.088V107.994H688.758V109.088H685.556V118.176H684.323V109.088H681.121ZM692.596 118.335C691.86 118.335 691.225 118.172 690.692 117.848C690.161 117.52 689.752 117.062 689.464 116.475C689.179 115.886 689.036 115.199 689.036 114.417C689.036 113.635 689.179 112.946 689.464 112.349C689.752 111.749 690.153 111.282 690.667 110.947C691.184 110.609 691.787 110.44 692.477 110.44C692.874 110.44 693.267 110.506 693.655 110.639C694.043 110.771 694.396 110.987 694.714 111.285C695.032 111.58 695.286 111.971 695.474 112.458C695.663 112.946 695.758 113.546 695.758 114.258V114.755H689.871V113.741H694.565C694.565 113.31 694.478 112.926 694.306 112.588C694.137 112.25 693.895 111.983 693.58 111.787C693.269 111.592 692.901 111.494 692.477 111.494C692.009 111.494 691.605 111.61 691.263 111.842C690.925 112.071 690.665 112.369 690.483 112.737C690.301 113.105 690.21 113.499 690.21 113.92V114.596C690.21 115.173 690.309 115.662 690.508 116.063C690.71 116.461 690.99 116.764 691.348 116.973C691.706 117.178 692.122 117.281 692.596 117.281C692.904 117.281 693.183 117.238 693.431 117.152C693.683 117.062 693.9 116.93 694.082 116.754C694.265 116.575 694.406 116.353 694.505 116.088L695.638 116.406C695.519 116.79 695.319 117.128 695.037 117.42C694.755 117.708 694.407 117.934 693.993 118.096C693.579 118.255 693.113 118.335 692.596 118.335ZM702.952 112.25L701.898 112.548C701.831 112.372 701.734 112.202 701.604 112.036C701.478 111.867 701.306 111.728 701.087 111.618C700.869 111.509 700.589 111.454 700.247 111.454C699.78 111.454 699.39 111.562 699.079 111.777C698.771 111.989 698.616 112.26 698.616 112.588C698.616 112.879 698.723 113.11 698.935 113.279C699.147 113.448 699.478 113.589 699.929 113.701L701.062 113.98C701.745 114.145 702.254 114.399 702.589 114.74C702.924 115.078 703.091 115.514 703.091 116.048C703.091 116.485 702.965 116.877 702.713 117.221C702.464 117.566 702.116 117.838 701.669 118.037C701.222 118.235 700.701 118.335 700.108 118.335C699.329 118.335 698.684 118.166 698.174 117.828C697.664 117.49 697.34 116.996 697.205 116.346L698.318 116.068C698.424 116.479 698.625 116.787 698.92 116.993C699.218 117.198 699.607 117.301 700.088 117.301C700.635 117.301 701.069 117.185 701.391 116.953C701.715 116.717 701.878 116.436 701.878 116.108C701.878 115.842 701.785 115.62 701.599 115.441C701.414 115.259 701.129 115.123 700.744 115.034L699.472 114.735C698.772 114.57 698.259 114.313 697.93 113.965C697.606 113.614 697.443 113.174 697.443 112.647C697.443 112.217 697.564 111.835 697.806 111.504C698.051 111.172 698.384 110.912 698.805 110.723C699.23 110.534 699.71 110.44 700.247 110.44C701.003 110.44 701.596 110.606 702.027 110.937C702.461 111.269 702.769 111.706 702.952 112.25ZM708.178 110.539V111.534H704.221V110.539H708.178ZM705.374 108.71H706.547V115.988C706.547 116.32 706.595 116.568 706.692 116.734C706.791 116.896 706.917 117.006 707.069 117.062C707.225 117.115 707.389 117.142 707.562 117.142C707.691 117.142 707.797 117.135 707.88 117.122C707.963 117.105 708.029 117.092 708.079 117.082L708.317 118.136C708.238 118.166 708.127 118.196 707.984 118.225C707.842 118.259 707.661 118.275 707.442 118.275C707.111 118.275 706.786 118.204 706.468 118.061C706.153 117.919 705.891 117.702 705.682 117.41C705.477 117.118 705.374 116.751 705.374 116.306V108.71ZM713.063 118.335C712.327 118.335 711.692 118.172 711.159 117.848C710.628 117.52 710.219 117.062 709.931 116.475C709.646 115.886 709.503 115.199 709.503 114.417C709.503 113.635 709.646 112.946 709.931 112.349C710.219 111.749 710.62 111.282 711.134 110.947C711.651 110.609 712.254 110.44 712.943 110.44C713.341 110.44 713.734 110.506 714.122 110.639C714.509 110.771 714.862 110.987 715.181 111.285C715.499 111.58 715.752 111.971 715.941 112.458C716.13 112.946 716.225 113.546 716.225 114.258V114.755H710.338V113.741H715.031C715.031 113.31 714.945 112.926 714.773 112.588C714.604 112.25 714.362 111.983 714.047 111.787C713.735 111.592 713.368 111.494 712.943 111.494C712.476 111.494 712.072 111.61 711.73 111.842C711.392 112.071 711.132 112.369 710.95 112.737C710.767 113.105 710.676 113.499 710.676 113.92V114.596C710.676 115.173 710.776 115.662 710.975 116.063C711.177 116.461 711.457 116.764 711.815 116.973C712.173 117.178 712.589 117.281 713.063 117.281C713.371 117.281 713.649 117.238 713.898 117.152C714.15 117.062 714.367 116.93 714.549 116.754C714.731 116.575 714.872 116.353 714.972 116.088L716.105 116.406C715.986 116.79 715.785 117.128 715.504 117.42C715.222 117.708 714.874 117.934 714.46 118.096C714.045 118.255 713.58 118.335 713.063 118.335ZM723.419 112.25L722.365 112.548C722.298 112.372 722.2 112.202 722.071 112.036C721.945 111.867 721.773 111.728 721.554 111.618C721.335 111.509 721.055 111.454 720.714 111.454C720.247 111.454 719.857 111.562 719.546 111.777C719.237 111.989 719.083 112.26 719.083 112.588C719.083 112.879 719.189 113.11 719.401 113.279C719.614 113.448 719.945 113.589 720.396 113.701L721.529 113.98C722.212 114.145 722.721 114.399 723.056 114.74C723.39 115.078 723.558 115.514 723.558 116.048C723.558 116.485 723.432 116.877 723.18 117.221C722.931 117.566 722.583 117.838 722.136 118.037C721.688 118.235 721.168 118.335 720.575 118.335C719.796 118.335 719.151 118.166 718.641 117.828C718.13 117.49 717.807 116.996 717.671 116.346L718.785 116.068C718.891 116.479 719.092 116.787 719.387 116.993C719.685 117.198 720.074 117.301 720.555 117.301C721.102 117.301 721.536 117.185 721.857 116.953C722.182 116.717 722.345 116.436 722.345 116.108C722.345 115.842 722.252 115.62 722.066 115.441C721.881 115.259 721.596 115.123 721.211 115.034L719.938 114.735C719.239 114.57 718.725 114.313 718.397 113.965C718.072 113.614 717.91 113.174 717.91 112.647C717.91 112.217 718.031 111.835 718.273 111.504C718.518 111.172 718.851 110.912 719.272 110.723C719.696 110.534 720.177 110.44 720.714 110.44C721.47 110.44 722.063 110.606 722.494 110.937C722.928 111.269 723.236 111.706 723.419 112.25Z" fill="#989898"/>
<path d="M29.0256 170.315C28.3693 170.315 27.7843 170.202 27.2706 169.977C26.7602 169.752 26.3542 169.438 26.0526 169.037C25.7543 168.633 25.5919 168.164 25.5653 167.63H26.8182C26.8447 167.958 26.9574 168.242 27.1562 168.48C27.3551 168.716 27.6153 168.898 27.9368 169.027C28.2583 169.157 28.6146 169.221 29.0057 169.221C29.4432 169.221 29.831 169.145 30.169 168.993C30.5071 168.84 30.7723 168.628 30.9645 168.356C31.1567 168.084 31.2528 167.77 31.2528 167.412C31.2528 167.037 31.16 166.707 30.9744 166.422C30.7888 166.134 30.517 165.908 30.1591 165.746C29.8011 165.584 29.3636 165.502 28.8466 165.502H28.0312V164.409H28.8466C29.2509 164.409 29.6056 164.336 29.9105 164.19C30.2188 164.044 30.459 163.839 30.6314 163.574C30.8071 163.308 30.8949 162.997 30.8949 162.639C30.8949 162.294 30.8187 161.994 30.6662 161.739C30.5137 161.484 30.2983 161.285 30.0199 161.142C29.7448 161 29.42 160.929 29.0455 160.929C28.6941 160.929 28.3627 160.993 28.0511 161.123C27.7429 161.248 27.491 161.432 27.2955 161.674C27.0999 161.913 26.9938 162.201 26.9773 162.539H25.7841C25.804 162.006 25.9647 161.538 26.2663 161.137C26.5679 160.733 26.9624 160.418 27.4496 160.193C27.9401 159.967 28.4787 159.855 29.0653 159.855C29.6951 159.855 30.2353 159.982 30.6861 160.238C31.1368 160.489 31.4832 160.823 31.7251 161.237C31.9671 161.651 32.0881 162.099 32.0881 162.579C32.0881 163.153 31.9373 163.641 31.6357 164.046C31.3374 164.45 30.9313 164.73 30.4176 164.886V164.966C31.0606 165.072 31.5627 165.345 31.924 165.786C32.2853 166.223 32.4659 166.765 32.4659 167.412C32.4659 167.965 32.3151 168.462 32.0135 168.903C31.7152 169.341 31.3075 169.685 30.7905 169.937C30.2734 170.189 29.6851 170.315 29.0256 170.315ZM37.8203 170.315C37.0713 170.315 36.4332 170.111 35.9062 169.703C35.3793 169.292 34.9766 168.698 34.6982 167.919C34.4197 167.136 34.2805 166.192 34.2805 165.085C34.2805 163.984 34.4197 163.045 34.6982 162.266C34.9799 161.484 35.3842 160.887 35.9112 160.476C36.4415 160.062 37.0779 159.855 37.8203 159.855C38.5627 159.855 39.1974 160.062 39.7244 160.476C40.2547 160.887 40.6591 161.484 40.9375 162.266C41.2192 163.045 41.3601 163.984 41.3601 165.085C41.3601 166.192 41.2209 167.136 40.9425 167.919C40.6641 168.698 40.2614 169.292 39.7344 169.703C39.2074 170.111 38.5694 170.315 37.8203 170.315ZM37.8203 169.221C38.5627 169.221 39.1394 168.863 39.5504 168.147C39.9614 167.431 40.1669 166.411 40.1669 165.085C40.1669 164.203 40.0724 163.453 39.8835 162.833C39.6979 162.213 39.4295 161.741 39.0781 161.416C38.7301 161.091 38.3108 160.929 37.8203 160.929C37.0845 160.929 36.5095 161.292 36.0952 162.017C35.6809 162.74 35.4737 163.762 35.4737 165.085C35.4737 165.967 35.5665 166.716 35.7521 167.332C35.9377 167.949 36.2045 168.417 36.5526 168.739C36.9039 169.06 37.3265 169.221 37.8203 169.221ZM46.5703 170.315C45.8213 170.315 45.1832 170.111 44.6562 169.703C44.1293 169.292 43.7266 168.698 43.4482 167.919C43.1697 167.136 43.0305 166.192 43.0305 165.085C43.0305 163.984 43.1697 163.045 43.4482 162.266C43.7299 161.484 44.1342 160.887 44.6612 160.476C45.1915 160.062 45.8279 159.855 46.5703 159.855C47.3127 159.855 47.9474 160.062 48.4744 160.476C49.0047 160.887 49.4091 161.484 49.6875 162.266C49.9692 163.045 50.1101 163.984 50.1101 165.085C50.1101 166.192 49.9709 167.136 49.6925 167.919C49.4141 168.698 49.0114 169.292 48.4844 169.703C47.9574 170.111 47.3194 170.315 46.5703 170.315ZM46.5703 169.221C47.3127 169.221 47.8894 168.863 48.3004 168.147C48.7114 167.431 48.9169 166.411 48.9169 165.085C48.9169 164.203 48.8224 163.453 48.6335 162.833C48.4479 162.213 48.1795 161.741 47.8281 161.416C47.4801 161.091 47.0608 160.929 46.5703 160.929C45.8345 160.929 45.2595 161.292 44.8452 162.017C44.4309 162.74 44.2237 163.762 44.2237 165.085C44.2237 165.967 44.3165 166.716 44.5021 167.332C44.6877 167.949 44.9545 168.417 45.3026 168.739C45.6539 169.06 46.0765 169.221 46.5703 169.221Z" fill="#989898"/>
<line x1="60.9453" y1="164.676" x2="767.445" y2="164.676" stroke="#C0C0C0"/>
<path d="M26.2551 214.176V213.281L29.6159 209.602C30.0104 209.171 30.3352 208.797 30.5904 208.478C30.8456 208.157 31.0345 207.855 31.1571 207.574C31.2831 207.288 31.3461 206.99 31.3461 206.679C31.3461 206.321 31.2599 206.011 31.0875 205.749C30.9185 205.487 30.6865 205.285 30.3915 205.142C30.0965 205 29.7651 204.929 29.3972 204.929C29.0061 204.929 28.6647 205.01 28.373 205.172C28.0847 205.331 27.861 205.555 27.7019 205.843C27.5461 206.132 27.4682 206.47 27.4682 206.858H26.2949C26.2949 206.261 26.4325 205.737 26.7076 205.287C26.9827 204.836 27.3572 204.484 27.8311 204.233C28.3084 203.981 28.8437 203.855 29.437 203.855C30.0336 203.855 30.5622 203.981 31.0229 204.233C31.4836 204.484 31.8449 204.824 32.1067 205.252C32.3685 205.679 32.4995 206.155 32.4995 206.679C32.4995 207.053 32.4315 207.419 32.2956 207.777C32.1631 208.132 31.931 208.528 31.5996 208.966C31.2715 209.4 30.8158 209.93 30.2324 210.556L27.9455 213.002V213.082H32.6784V214.176H26.2551ZM37.9135 214.315C37.3302 214.315 36.8049 214.199 36.3375 213.967C35.8702 213.735 35.4957 213.417 35.214 213.012C34.9322 212.608 34.7781 212.147 34.7516 211.63H35.9448C35.9912 212.091 36.2 212.472 36.5712 212.774C36.9457 213.072 37.3932 213.221 37.9135 213.221C38.3311 213.221 38.7024 213.123 39.0272 212.928C39.3553 212.732 39.6122 212.464 39.7978 212.123C39.9867 211.778 40.0811 211.388 40.0811 210.954C40.0811 210.51 39.9834 210.114 39.7878 209.766C39.5956 209.415 39.3304 209.138 38.9924 208.936C38.6543 208.734 38.2682 208.631 37.834 208.627C37.5224 208.624 37.2026 208.672 36.8745 208.772C36.5463 208.868 36.2762 208.992 36.0641 209.145L34.9107 209.005L35.5272 203.994H40.8169V205.088H36.5613L36.2033 208.091H36.263C36.4718 207.925 36.7336 207.787 37.0485 207.678C37.3633 207.569 37.6915 207.514 38.0328 207.514C38.656 207.514 39.2111 207.663 39.6983 207.961C40.1889 208.256 40.5733 208.661 40.8517 209.174C41.1335 209.688 41.2743 210.275 41.2743 210.934C41.2743 211.584 41.1285 212.164 40.8368 212.674C40.5485 213.181 40.1507 213.583 39.6436 213.877C39.1365 214.169 38.5598 214.315 37.9135 214.315ZM46.5703 214.315C45.8213 214.315 45.1832 214.111 44.6562 213.703C44.1293 213.292 43.7266 212.698 43.4482 211.919C43.1697 211.136 43.0305 210.192 43.0305 209.085C43.0305 207.984 43.1697 207.045 43.4482 206.266C43.7299 205.484 44.1342 204.887 44.6612 204.476C45.1915 204.062 45.8279 203.855 46.5703 203.855C47.3127 203.855 47.9474 204.062 48.4744 204.476C49.0047 204.887 49.4091 205.484 49.6875 206.266C49.9692 207.045 50.1101 207.984 50.1101 209.085C50.1101 210.192 49.9709 211.136 49.6925 211.919C49.4141 212.698 49.0114 213.292 48.4844 213.703C47.9574 214.111 47.3194 214.315 46.5703 214.315ZM46.5703 213.221C47.3127 213.221 47.8894 212.863 48.3004 212.147C48.7114 211.431 48.9169 210.411 48.9169 209.085C48.9169 208.203 48.8224 207.453 48.6335 206.833C48.4479 206.213 48.1795 205.741 47.8281 205.416C47.4801 205.091 47.0608 204.929 46.5703 204.929C45.8345 204.929 45.2595 205.292 44.8452 206.017C44.4309 206.74 44.2237 207.762 44.2237 209.085C44.2237 209.967 44.3165 210.716 44.5021 211.332C44.6877 211.949 44.9545 212.417 45.3026 212.739C45.6539 213.06 46.0765 213.221 46.5703 213.221Z" fill="#989898"/>
<line x1="60.9453" y1="208.676" x2="767.445" y2="208.676" stroke="#C0C0C0"/>
<path d="M26.0227 258.176V257.281L29.3835 253.602C29.7779 253.171 30.1027 252.797 30.358 252.478C30.6132 252.157 30.8021 251.855 30.9247 251.574C31.0507 251.288 31.1136 250.99 31.1136 250.679C31.1136 250.321 31.0275 250.011 30.8551 249.749C30.6861 249.487 30.4541 249.285 30.1591 249.142C29.8641 249 29.5327 248.929 29.1648 248.929C28.7737 248.929 28.4323 249.01 28.1406 249.172C27.8523 249.331 27.6286 249.555 27.4695 249.843C27.3137 250.132 27.2358 250.47 27.2358 250.858H26.0625C26.0625 250.261 26.2 249.737 26.4751 249.287C26.7502 248.836 27.1248 248.484 27.5987 248.233C28.076 247.981 28.6113 247.855 29.2045 247.855C29.8011 247.855 30.3298 247.981 30.7905 248.233C31.2512 248.484 31.6125 248.824 31.8743 249.252C32.1361 249.679 32.267 250.155 32.267 250.679C32.267 251.053 32.1991 251.419 32.0632 251.777C31.9306 252.132 31.6986 252.528 31.3672 252.966C31.0391 253.4 30.5833 253.93 30 254.556L27.7131 257.002V257.082H32.446V258.176H26.0227ZM37.8203 258.315C37.0713 258.315 36.4332 258.111 35.9062 257.703C35.3793 257.292 34.9766 256.698 34.6982 255.919C34.4197 255.136 34.2805 254.192 34.2805 253.085C34.2805 251.984 34.4197 251.045 34.6982 250.266C34.9799 249.484 35.3842 248.887 35.9112 248.476C36.4415 248.062 37.0779 247.855 37.8203 247.855C38.5627 247.855 39.1974 248.062 39.7244 248.476C40.2547 248.887 40.6591 249.484 40.9375 250.266C41.2192 251.045 41.3601 251.984 41.3601 253.085C41.3601 254.192 41.2209 255.136 40.9425 255.919C40.6641 256.698 40.2614 257.292 39.7344 257.703C39.2074 258.111 38.5694 258.315 37.8203 258.315ZM37.8203 257.221C38.5627 257.221 39.1394 256.863 39.5504 256.147C39.9614 255.431 40.1669 254.411 40.1669 253.085C40.1669 252.203 40.0724 251.453 39.8835 250.833C39.6979 250.213 39.4295 249.741 39.0781 249.416C38.7301 249.091 38.3108 248.929 37.8203 248.929C37.0845 248.929 36.5095 249.292 36.0952 250.017C35.6809 250.74 35.4737 251.762 35.4737 253.085C35.4737 253.967 35.5665 254.716 35.7521 255.332C35.9377 255.949 36.2045 256.417 36.5526 256.739C36.9039 257.06 37.3265 257.221 37.8203 257.221ZM46.5703 258.315C45.8213 258.315 45.1832 258.111 44.6562 257.703C44.1293 257.292 43.7266 256.698 43.4482 255.919C43.1697 255.136 43.0305 254.192 43.0305 253.085C43.0305 251.984 43.1697 251.045 43.4482 250.266C43.7299 249.484 44.1342 248.887 44.6612 248.476C45.1915 248.062 45.8279 247.855 46.5703 247.855C47.3127 247.855 47.9474 248.062 48.4744 248.476C49.0047 248.887 49.4091 249.484 49.6875 250.266C49.9692 251.045 50.1101 251.984 50.1101 253.085C50.1101 254.192 49.9709 255.136 49.6925 255.919C49.4141 256.698 49.0114 257.292 48.4844 257.703C47.9574 258.111 47.3194 258.315 46.5703 258.315ZM46.5703 257.221C47.3127 257.221 47.8894 256.863 48.3004 256.147C48.7114 255.431 48.9169 254.411 48.9169 253.085C48.9169 252.203 48.8224 251.453 48.6335 250.833C48.4479 250.213 48.1795 249.741 47.8281 249.416C47.4801 249.091 47.0608 248.929 46.5703 248.929C45.8345 248.929 45.2595 249.292 44.8452 250.017C44.4309 250.74 44.2237 251.762 44.2237 253.085C44.2237 253.967 44.3165 254.716 44.5021 255.332C44.6877 255.949 44.9545 256.417 45.3026 256.739C45.6539 257.06 46.0765 257.221 46.5703 257.221Z" fill="#989898"/>
<line x1="60.9453" y1="252.676" x2="767.445" y2="252.676" stroke="#C0C0C0"/>
<path d="M31.8034 291.994V302.176H30.5705V293.287H30.5108L28.025 294.937V293.684L30.5705 291.994H31.8034ZM37.9135 302.315C37.3302 302.315 36.8049 302.199 36.3375 301.967C35.8702 301.735 35.4957 301.417 35.214 301.012C34.9322 300.608 34.7781 300.147 34.7516 299.63H35.9448C35.9912 300.091 36.2 300.472 36.5712 300.774C36.9457 301.072 37.3932 301.221 37.9135 301.221C38.3311 301.221 38.7024 301.123 39.0272 300.928C39.3553 300.732 39.6122 300.464 39.7978 300.123C39.9867 299.778 40.0811 299.388 40.0811 298.954C40.0811 298.51 39.9834 298.114 39.7878 297.766C39.5956 297.415 39.3304 297.138 38.9924 296.936C38.6543 296.734 38.2682 296.631 37.834 296.627C37.5224 296.624 37.2026 296.672 36.8745 296.772C36.5463 296.868 36.2762 296.992 36.0641 297.145L34.9107 297.005L35.5272 291.994H40.8169V293.088H36.5613L36.2033 296.091H36.263C36.4718 295.925 36.7336 295.787 37.0485 295.678C37.3633 295.569 37.6915 295.514 38.0328 295.514C38.656 295.514 39.2111 295.663 39.6983 295.961C40.1889 296.256 40.5733 296.661 40.8517 297.174C41.1335 297.688 41.2743 298.275 41.2743 298.934C41.2743 299.584 41.1285 300.164 40.8368 300.674C40.5485 301.181 40.1507 301.583 39.6436 301.877C39.1365 302.169 38.5598 302.315 37.9135 302.315ZM46.5703 302.315C45.8213 302.315 45.1832 302.111 44.6562 301.703C44.1293 301.292 43.7266 300.698 43.4482 299.919C43.1697 299.136 43.0305 298.192 43.0305 297.085C43.0305 295.984 43.1697 295.045 43.4482 294.266C43.7299 293.484 44.1342 292.887 44.6612 292.476C45.1915 292.062 45.8279 291.855 46.5703 291.855C47.3127 291.855 47.9474 292.062 48.4744 292.476C49.0047 292.887 49.4091 293.484 49.6875 294.266C49.9692 295.045 50.1101 295.984 50.1101 297.085C50.1101 298.192 49.9709 299.136 49.6925 299.919C49.4141 300.698 49.0114 301.292 48.4844 301.703C47.9574 302.111 47.3194 302.315 46.5703 302.315ZM46.5703 301.221C47.3127 301.221 47.8894 300.863 48.3004 300.147C48.7114 299.431 48.9169 298.411 48.9169 297.085C48.9169 296.203 48.8224 295.453 48.6335 294.833C48.4479 294.213 48.1795 293.741 47.8281 293.416C47.4801 293.091 47.0608 292.929 46.5703 292.929C45.8345 292.929 45.2595 293.292 44.8452 294.017C44.4309 294.74 44.2237 295.762 44.2237 297.085C44.2237 297.967 44.3165 298.716 44.5021 299.332C44.6877 299.949 44.9545 300.417 45.3026 300.739C45.6539 301.06 46.0765 301.221 46.5703 301.221Z" fill="#989898"/>
<line x1="60.9453" y1="296.676" x2="767.445" y2="296.676" stroke="#C0C0C0"/>
<path d="M31.571 335.994V346.176H30.3381V337.287H30.2784L27.7926 338.937V337.684L30.3381 335.994H31.571ZM37.8203 346.315C37.0713 346.315 36.4332 346.111 35.9062 345.703C35.3793 345.292 34.9766 344.698 34.6982 343.919C34.4197 343.136 34.2805 342.192 34.2805 341.085C34.2805 339.984 34.4197 339.045 34.6982 338.266C34.9799 337.484 35.3842 336.887 35.9112 336.476C36.4415 336.062 37.0779 335.855 37.8203 335.855C38.5627 335.855 39.1974 336.062 39.7244 336.476C40.2547 336.887 40.6591 337.484 40.9375 338.266C41.2192 339.045 41.3601 339.984 41.3601 341.085C41.3601 342.192 41.2209 343.136 40.9425 343.919C40.6641 344.698 40.2614 345.292 39.7344 345.703C39.2074 346.111 38.5694 346.315 37.8203 346.315ZM37.8203 345.221C38.5627 345.221 39.1394 344.863 39.5504 344.147C39.9614 343.431 40.1669 342.411 40.1669 341.085C40.1669 340.203 40.0724 339.453 39.8835 338.833C39.6979 338.213 39.4295 337.741 39.0781 337.416C38.7301 337.091 38.3108 336.929 37.8203 336.929C37.0845 336.929 36.5095 337.292 36.0952 338.017C35.6809 338.74 35.4737 339.762 35.4737 341.085C35.4737 341.967 35.5665 342.716 35.7521 343.332C35.9377 343.949 36.2045 344.417 36.5526 344.739C36.9039 345.06 37.3265 345.221 37.8203 345.221ZM46.5703 346.315C45.8213 346.315 45.1832 346.111 44.6562 345.703C44.1293 345.292 43.7266 344.698 43.4482 343.919C43.1697 343.136 43.0305 342.192 43.0305 341.085C43.0305 339.984 43.1697 339.045 43.4482 338.266C43.7299 337.484 44.1342 336.887 44.6612 336.476C45.1915 336.062 45.8279 335.855 46.5703 335.855C47.3127 335.855 47.9474 336.062 48.4744 336.476C49.0047 336.887 49.4091 337.484 49.6875 338.266C49.9692 339.045 50.1101 339.984 50.1101 341.085C50.1101 342.192 49.9709 343.136 49.6925 343.919C49.4141 344.698 49.0114 345.292 48.4844 345.703C47.9574 346.111 47.3194 346.315 46.5703 346.315ZM46.5703 345.221C47.3127 345.221 47.8894 344.863 48.3004 344.147C48.7114 343.431 48.9169 342.411 48.9169 341.085C48.9169 340.203 48.8224 339.453 48.6335 338.833C48.4479 338.213 48.1795 337.741 47.8281 337.416C47.4801 337.091 47.0608 336.929 46.5703 336.929C45.8345 336.929 45.2595 337.292 44.8452 338.017C44.4309 338.74 44.2237 339.762 44.2237 341.085C44.2237 341.967 44.3165 342.716 44.5021 343.332C44.6877 343.949 44.9545 344.417 45.3026 344.739C45.6539 345.06 46.0765 345.221 46.5703 345.221Z" fill="#989898"/>
<line x1="60.9453" y1="340.676" x2="767.445" y2="340.676" stroke="#C0C0C0"/>
<path d="M37.9135 390.315C37.3302 390.315 36.8049 390.199 36.3375 389.967C35.8702 389.735 35.4957 389.417 35.214 389.012C34.9322 388.608 34.7781 388.147 34.7516 387.63H35.9448C35.9912 388.091 36.2 388.472 36.5712 388.774C36.9457 389.072 37.3932 389.221 37.9135 389.221C38.3311 389.221 38.7024 389.123 39.0272 388.928C39.3553 388.732 39.6122 388.464 39.7978 388.123C39.9867 387.778 40.0811 387.388 40.0811 386.954C40.0811 386.51 39.9834 386.114 39.7878 385.766C39.5956 385.415 39.3304 385.138 38.9924 384.936C38.6543 384.734 38.2682 384.631 37.834 384.627C37.5224 384.624 37.2026 384.672 36.8745 384.772C36.5463 384.868 36.2762 384.992 36.0641 385.145L34.9107 385.005L35.5272 379.994H40.8169V381.088H36.5613L36.2033 384.091H36.263C36.4718 383.925 36.7336 383.787 37.0485 383.678C37.3633 383.569 37.6915 383.514 38.0328 383.514C38.656 383.514 39.2111 383.663 39.6983 383.961C40.1889 384.256 40.5733 384.661 40.8517 385.174C41.1335 385.688 41.2743 386.275 41.2743 386.934C41.2743 387.584 41.1285 388.164 40.8368 388.674C40.5485 389.181 40.1507 389.583 39.6436 389.877C39.1365 390.169 38.5598 390.315 37.9135 390.315ZM46.5703 390.315C45.8213 390.315 45.1832 390.111 44.6562 389.703C44.1293 389.292 43.7266 388.698 43.4482 387.919C43.1697 387.136 43.0305 386.192 43.0305 385.085C43.0305 383.984 43.1697 383.045 43.4482 382.266C43.7299 381.484 44.1342 380.887 44.6612 380.476C45.1915 380.062 45.8279 379.855 46.5703 379.855C47.3127 379.855 47.9474 380.062 48.4744 380.476C49.0047 380.887 49.4091 381.484 49.6875 382.266C49.9692 383.045 50.1101 383.984 50.1101 385.085C50.1101 386.192 49.9709 387.136 49.6925 387.919C49.4141 388.698 49.0114 389.292 48.4844 389.703C47.9574 390.111 47.3194 390.315 46.5703 390.315ZM46.5703 389.221C47.3127 389.221 47.8894 388.863 48.3004 388.147C48.7114 387.431 48.9169 386.411 48.9169 385.085C48.9169 384.203 48.8224 383.453 48.6335 382.833C48.4479 382.213 48.1795 381.741 47.8281 381.416C47.4801 381.091 47.0608 380.929 46.5703 380.929C45.8345 380.929 45.2595 381.292 44.8452 382.017C44.4309 382.74 44.2237 383.762 44.2237 385.085C44.2237 385.967 44.3165 386.716 44.5021 387.332C44.6877 387.949 44.9545 388.417 45.3026 388.739C45.6539 389.06 46.0765 389.221 46.5703 389.221Z" fill="#989898"/>
<line x1="60.9453" y1="384.676" x2="767.445" y2="384.676" stroke="#C0C0C0"/>
<path d="M46.5703 433.315C45.8213 433.315 45.1832 433.111 44.6562 432.703C44.1293 432.292 43.7266 431.698 43.4482 430.919C43.1697 430.136 43.0305 429.192 43.0305 428.085C43.0305 426.984 43.1697 426.045 43.4482 425.266C43.7299 424.484 44.1342 423.887 44.6612 423.476C45.1915 423.062 45.8279 422.855 46.5703 422.855C47.3127 422.855 47.9474 423.062 48.4744 423.476C49.0047 423.887 49.4091 424.484 49.6875 425.266C49.9692 426.045 50.1101 426.984 50.1101 428.085C50.1101 429.192 49.9709 430.136 49.6925 430.919C49.4141 431.698 49.0114 432.292 48.4844 432.703C47.9574 433.111 47.3194 433.315 46.5703 433.315ZM46.5703 432.221C47.3127 432.221 47.8894 431.863 48.3004 431.147C48.7114 430.431 48.9169 429.411 48.9169 428.085C48.9169 427.203 48.8224 426.453 48.6335 425.833C48.4479 425.213 48.1795 424.741 47.8281 424.416C47.4801 424.091 47.0608 423.929 46.5703 423.929C45.8345 423.929 45.2595 424.292 44.8452 425.017C44.4309 425.74 44.2237 426.762 44.2237 428.085C44.2237 428.967 44.3165 429.716 44.5021 430.332C44.6877 430.949 44.9545 431.417 45.3026 431.739C45.6539 432.06 46.0765 432.221 46.5703 432.221Z" fill="#989898"/>
<path d="M97.9102 239.676C97.9102 236.638 100.373 234.176 103.41 234.176C106.448 234.176 108.91 236.638 108.91 239.676V428.176H97.9102V239.676Z" fill="#36D759"/>
<path d="M113.91 298.676C113.91 295.638 116.373 293.176 119.41 293.176C122.448 293.176 124.91 295.638 124.91 298.676V428.176H113.91V298.676Z" fill="#F32F2F"/>
<path d="M60.9453 428.176V427.176H59.9453V428.176H60.9453ZM60.9453 429.176H161.874V427.176H60.9453V429.176ZM61.9453 434.176V428.176H59.9453V434.176H61.9453Z" fill="#C0C0C0" mask="url(#path-25-inside-1_1270_24143)"/>
<path d="M105.659 436.449H106.716V442.687C106.716 443.244 106.613 443.717 106.409 444.106C106.204 444.495 105.916 444.791 105.544 444.993C105.172 445.194 104.733 445.295 104.227 445.295C103.75 445.295 103.325 445.208 102.953 445.035C102.581 444.859 102.288 444.609 102.075 444.285C101.862 443.961 101.755 443.576 101.755 443.13H102.795C102.795 443.377 102.856 443.593 102.978 443.778C103.103 443.96 103.274 444.102 103.49 444.204C103.706 444.306 103.952 444.358 104.227 444.358C104.531 444.358 104.79 444.294 105.003 444.166C105.216 444.038 105.378 443.85 105.488 443.603C105.602 443.353 105.659 443.048 105.659 442.687V436.449ZM110.623 445.329C110.209 445.329 109.832 445.251 109.494 445.095C109.156 444.936 108.888 444.707 108.689 444.409C108.49 444.108 108.39 443.744 108.39 443.318C108.39 442.943 108.464 442.639 108.612 442.406C108.76 442.17 108.957 441.985 109.204 441.852C109.452 441.718 109.724 441.619 110.023 441.554C110.324 441.485 110.626 441.431 110.93 441.392C111.328 441.341 111.65 441.302 111.898 441.277C112.148 441.248 112.329 441.201 112.443 441.136C112.559 441.071 112.618 440.957 112.618 440.795V440.761C112.618 440.341 112.503 440.014 112.273 439.781C112.045 439.548 111.7 439.431 111.237 439.431C110.757 439.431 110.38 439.537 110.108 439.747C109.835 439.957 109.643 440.181 109.532 440.42L108.578 440.079C108.748 439.681 108.976 439.372 109.26 439.15C109.547 438.926 109.859 438.77 110.197 438.681C110.538 438.591 110.873 438.545 111.203 438.545C111.413 438.545 111.655 438.571 111.927 438.622C112.203 438.67 112.469 438.771 112.724 438.924C112.983 439.078 113.197 439.309 113.368 439.619C113.538 439.929 113.623 440.343 113.623 440.863V445.176H112.618V444.289H112.567C112.498 444.431 112.385 444.583 112.226 444.745C112.067 444.907 111.855 445.045 111.591 445.159C111.327 445.272 111.004 445.329 110.623 445.329ZM110.777 444.426C111.175 444.426 111.51 444.348 111.782 444.191C112.058 444.035 112.265 443.833 112.405 443.586C112.547 443.339 112.618 443.079 112.618 442.806V441.886C112.575 441.937 112.481 441.984 112.336 442.027C112.194 442.066 112.03 442.102 111.842 442.133C111.657 442.162 111.477 442.187 111.301 442.21C111.128 442.23 110.987 442.247 110.879 442.261C110.618 442.295 110.373 442.35 110.146 442.427C109.922 442.501 109.74 442.613 109.601 442.764C109.464 442.912 109.396 443.113 109.396 443.369C109.396 443.718 109.525 443.983 109.784 444.162C110.045 444.338 110.376 444.426 110.777 444.426ZM116.465 441.238V445.176H115.459V438.63H116.431V439.653H116.516C116.669 439.321 116.902 439.054 117.215 438.852C117.527 438.647 117.931 438.545 118.425 438.545C118.868 438.545 119.256 438.636 119.588 438.818C119.921 438.997 120.179 439.27 120.364 439.636C120.548 440 120.641 440.46 120.641 441.017V445.176H119.635V441.085C119.635 440.571 119.502 440.17 119.235 439.883C118.967 439.593 118.601 439.449 118.135 439.449C117.814 439.449 117.527 439.518 117.274 439.657C117.024 439.797 116.827 440 116.682 440.267C116.537 440.534 116.465 440.858 116.465 441.238Z" fill="#989898"/>
<path d="M198.84 239.676C198.84 236.638 201.302 234.176 204.34 234.176C207.377 234.176 209.84 236.638 209.84 239.676V428.176H198.84V239.676Z" fill="#36D759"/>
<path d="M214.84 298.676C214.84 295.638 217.302 293.176 220.34 293.176C223.377 293.176 225.84 295.638 225.84 298.676V428.176H214.84V298.676Z" fill="#F32F2F"/>
<path d="M161.875 428.176V427.176H160.875V428.176H161.875ZM161.875 429.176H262.804V427.176H161.875V429.176ZM162.875 434.176V428.176H160.875V434.176H162.875Z" fill="#C0C0C0" mask="url(#path-30-inside-2_1270_24143)"/>
<path d="M203.382 445.176V436.449H208.615V437.386H204.439V440.335H208.223V441.272H204.439V445.176H203.382ZM212.553 445.312C211.922 445.312 211.378 445.173 210.921 444.895C210.466 444.613 210.115 444.221 209.868 443.718C209.624 443.213 209.502 442.625 209.502 441.954C209.502 441.284 209.624 440.693 209.868 440.181C210.115 439.667 210.459 439.267 210.899 438.98C211.343 438.69 211.86 438.545 212.451 438.545C212.792 438.545 213.128 438.602 213.461 438.716C213.793 438.829 214.096 439.014 214.368 439.27C214.641 439.522 214.858 439.858 215.02 440.275C215.182 440.693 215.263 441.207 215.263 441.818V442.244H210.218V441.375H214.24C214.24 441.005 214.167 440.676 214.019 440.386C213.874 440.096 213.667 439.868 213.397 439.7C213.13 439.532 212.814 439.449 212.451 439.449C212.05 439.449 211.703 439.548 211.411 439.747C211.121 439.943 210.898 440.199 210.742 440.514C210.586 440.829 210.507 441.167 210.507 441.528V442.108C210.507 442.602 210.593 443.021 210.763 443.365C210.936 443.706 211.176 443.966 211.483 444.145C211.79 444.321 212.147 444.409 212.553 444.409C212.817 444.409 213.056 444.372 213.269 444.298C213.485 444.221 213.671 444.108 213.827 443.957C213.983 443.804 214.104 443.613 214.189 443.386L215.161 443.659C215.059 443.988 214.887 444.278 214.645 444.528C214.404 444.775 214.105 444.968 213.75 445.108C213.395 445.244 212.996 445.312 212.553 445.312ZM221.946 438.63L219.526 445.176H218.503L216.082 438.63H217.173L218.98 443.846H219.048L220.855 438.63H221.946Z" fill="#989898"/>
<path d="M299.766 239.676C299.766 236.638 302.228 234.176 305.266 234.176C308.303 234.176 310.766 236.638 310.766 239.676V428.176H299.766V239.676Z" fill="#36D759"/>
<path d="M315.766 298.676C315.766 295.638 318.228 293.176 321.266 293.176C324.303 293.176 326.766 295.638 326.766 298.676V428.176H315.766V298.676Z" fill="#F32F2F"/>
<path d="M262.801 428.176V427.176H261.801V428.176H262.801ZM262.801 429.176H363.729V427.176H262.801V429.176ZM263.801 434.176V428.176H261.801V434.176H263.801Z" fill="#C0C0C0" mask="url(#path-35-inside-3_1270_24143)"/>
<path d="M303.371 436.449H304.632L307.598 443.693H307.7L310.666 436.449H311.928V445.176H310.939V438.545H310.854L308.126 445.176H307.172L304.445 438.545H304.359V445.176H303.371V436.449ZM315.836 445.329C315.421 445.329 315.045 445.251 314.707 445.095C314.369 444.936 314.1 444.707 313.902 444.409C313.703 444.108 313.603 443.744 313.603 443.318C313.603 442.943 313.677 442.639 313.825 442.406C313.973 442.17 314.17 441.985 314.417 441.852C314.664 441.718 314.937 441.619 315.235 441.554C315.537 441.485 315.839 441.431 316.143 441.392C316.541 441.341 316.863 441.302 317.11 441.277C317.36 441.248 317.542 441.201 317.656 441.136C317.772 441.071 317.831 440.957 317.831 440.795V440.761C317.831 440.341 317.716 440.014 317.485 439.781C317.258 439.548 316.913 439.431 316.45 439.431C315.97 439.431 315.593 439.537 315.321 439.747C315.048 439.957 314.856 440.181 314.745 440.42L313.791 440.079C313.961 439.681 314.189 439.372 314.473 439.15C314.76 438.926 315.072 438.77 315.41 438.681C315.751 438.591 316.086 438.545 316.416 438.545C316.626 438.545 316.868 438.571 317.14 438.622C317.416 438.67 317.681 438.771 317.937 438.924C318.196 439.078 318.41 439.309 318.581 439.619C318.751 439.929 318.836 440.343 318.836 440.863V445.176H317.831V444.289H317.779C317.711 444.431 317.598 444.583 317.439 444.745C317.279 444.907 317.068 445.045 316.804 445.159C316.539 445.272 316.217 445.329 315.836 445.329ZM315.99 444.426C316.387 444.426 316.723 444.348 316.995 444.191C317.271 444.035 317.478 443.833 317.618 443.586C317.76 443.339 317.831 443.079 317.831 442.806V441.886C317.788 441.937 317.694 441.984 317.549 442.027C317.407 442.066 317.243 442.102 317.055 442.133C316.87 442.162 316.69 442.187 316.514 442.21C316.341 442.23 316.2 442.247 316.092 442.261C315.831 442.295 315.586 442.35 315.359 442.427C315.135 442.501 314.953 442.613 314.814 442.764C314.677 442.912 314.609 443.113 314.609 443.369C314.609 443.718 314.738 443.983 314.997 444.162C315.258 444.338 315.589 444.426 315.99 444.426ZM320.672 445.176V438.63H321.643V439.619H321.712C321.831 439.295 322.047 439.032 322.359 438.831C322.672 438.629 323.024 438.528 323.416 438.528C323.49 438.528 323.582 438.529 323.693 438.532C323.804 438.535 323.888 438.539 323.945 438.545V439.568C323.91 439.559 323.832 439.547 323.71 439.529C323.591 439.51 323.464 439.5 323.331 439.5C323.013 439.5 322.729 439.566 322.479 439.7C322.232 439.831 322.035 440.012 321.891 440.245C321.749 440.475 321.678 440.738 321.678 441.034V445.176H320.672Z" fill="#989898"/>
<path d="M400.695 239.676C400.695 236.638 403.158 234.176 406.195 234.176C409.233 234.176 411.695 236.638 411.695 239.676V428.176H400.695V239.676Z" fill="#36D759"/>
<path d="M416.695 298.676C416.695 295.638 419.158 293.176 422.195 293.176C425.233 293.176 427.695 295.638 427.695 298.676V428.176H416.695V298.676Z" fill="#F32F2F"/>
<path d="M363.73 428.176V427.176H362.73V428.176H363.73ZM363.73 429.176H464.659V427.176H363.73V429.176ZM364.73 434.176V428.176H362.73V434.176H364.73Z" fill="#C0C0C0" mask="url(#path-40-inside-4_1270_24143)"/>
<path d="M405.596 445.176H404.488L407.692 436.449H408.783L411.988 445.176H410.88L408.272 437.829H408.204L405.596 445.176ZM406.005 441.767H410.471V442.704H406.005V441.767ZM413.347 445.176V436.449H414.353V439.67H414.438C414.512 439.556 414.614 439.412 414.745 439.235C414.879 439.056 415.069 438.897 415.316 438.758C415.566 438.616 415.904 438.545 416.33 438.545C416.881 438.545 417.367 438.683 417.788 438.958C418.208 439.234 418.536 439.625 418.772 440.13C419.008 440.636 419.126 441.233 419.126 441.92C419.126 442.613 419.008 443.214 418.772 443.723C418.536 444.228 418.209 444.62 417.792 444.899C417.374 445.174 416.893 445.312 416.347 445.312C415.927 445.312 415.59 445.243 415.337 445.103C415.084 444.961 414.89 444.801 414.754 444.622C414.617 444.44 414.512 444.289 414.438 444.17H414.319V445.176H413.347ZM414.336 441.903C414.336 442.397 414.408 442.833 414.553 443.211C414.698 443.586 414.91 443.88 415.188 444.093C415.467 444.304 415.808 444.409 416.211 444.409C416.631 444.409 416.982 444.298 417.263 444.076C417.548 443.852 417.761 443.551 417.903 443.173C418.048 442.792 418.12 442.369 418.12 441.903C418.12 441.443 418.049 441.028 417.907 440.659C417.768 440.287 417.556 439.993 417.272 439.777C416.991 439.558 416.637 439.449 416.211 439.449C415.802 439.449 415.458 439.552 415.18 439.76C414.901 439.964 414.691 440.251 414.549 440.62C414.407 440.987 414.336 441.414 414.336 441.903ZM420.664 445.176V438.63H421.636V439.619H421.704C421.823 439.295 422.039 439.032 422.352 438.831C422.664 438.629 423.016 438.528 423.408 438.528C423.482 438.528 423.575 438.529 423.685 438.532C423.796 438.535 423.88 438.539 423.937 438.545V439.568C423.903 439.559 423.825 439.547 423.702 439.529C423.583 439.51 423.457 439.5 423.323 439.5C423.005 439.5 422.721 439.566 422.471 439.7C422.224 439.831 422.028 440.012 421.883 440.245C421.741 440.475 421.67 440.738 421.67 441.034V445.176H420.664Z" fill="#989898"/>
<path d="M501.625 239.676C501.625 236.638 504.087 234.176 507.125 234.176C510.163 234.176 512.625 236.638 512.625 239.676V428.176H501.625V239.676Z" fill="#36D759"/>
<path d="M517.625 298.676C517.625 295.638 520.087 293.176 523.125 293.176C526.163 293.176 528.625 295.638 528.625 298.676V428.176H517.625V298.676Z" fill="#F32F2F"/>
<path d="M464.66 428.176V427.176H463.66V428.176H464.66ZM464.66 429.176H565.589V427.176H464.66V429.176ZM465.66 434.176V428.176H463.66V434.176H465.66Z" fill="#C0C0C0" mask="url(#path-45-inside-5_1270_24143)"/>
<path d="M506.039 436.449H507.3L510.266 443.693H510.368L513.334 436.449H514.596V445.176H513.607V438.545H513.522L510.794 445.176H509.84L507.113 438.545H507.027V445.176H506.039V436.449ZM518.504 445.329C518.089 445.329 517.713 445.251 517.375 445.095C517.037 444.936 516.768 444.707 516.57 444.409C516.371 444.108 516.271 443.744 516.271 443.318C516.271 442.943 516.345 442.639 516.493 442.406C516.641 442.17 516.838 441.985 517.085 441.852C517.332 441.718 517.605 441.619 517.903 441.554C518.205 441.485 518.507 441.431 518.811 441.392C519.209 441.341 519.531 441.302 519.778 441.277C520.028 441.248 520.21 441.201 520.324 441.136C520.44 441.071 520.499 440.957 520.499 440.795V440.761C520.499 440.341 520.383 440.014 520.153 439.781C519.926 439.548 519.581 439.431 519.118 439.431C518.638 439.431 518.261 439.537 517.989 439.747C517.716 439.957 517.524 440.181 517.413 440.42L516.459 440.079C516.629 439.681 516.857 439.372 517.141 439.15C517.428 438.926 517.74 438.77 518.078 438.681C518.419 438.591 518.754 438.545 519.084 438.545C519.294 438.545 519.535 438.571 519.808 438.622C520.084 438.67 520.349 438.771 520.605 438.924C520.864 439.078 521.078 439.309 521.249 439.619C521.419 439.929 521.504 440.343 521.504 440.863V445.176H520.499V444.289H520.447C520.379 444.431 520.266 444.583 520.107 444.745C519.947 444.907 519.736 445.045 519.472 445.159C519.207 445.272 518.885 445.329 518.504 445.329ZM518.658 444.426C519.055 444.426 519.391 444.348 519.663 444.191C519.939 444.035 520.146 443.833 520.285 443.586C520.428 443.339 520.499 443.079 520.499 442.806V441.886C520.456 441.937 520.362 441.984 520.217 442.027C520.075 442.066 519.91 442.102 519.723 442.133C519.538 442.162 519.358 442.187 519.182 442.21C519.008 442.23 518.868 442.247 518.76 442.261C518.499 442.295 518.254 442.35 518.027 442.427C517.803 442.501 517.621 442.613 517.482 442.764C517.345 442.912 517.277 443.113 517.277 443.369C517.277 443.718 517.406 443.983 517.665 444.162C517.926 444.338 518.257 444.426 518.658 444.426ZM523.34 445.176V438.63H524.346V445.176H523.34ZM523.851 437.539C523.655 437.539 523.486 437.473 523.344 437.339C523.205 437.206 523.135 437.045 523.135 436.858C523.135 436.67 523.205 436.51 523.344 436.376C523.486 436.243 523.655 436.176 523.851 436.176C524.047 436.176 524.215 436.243 524.354 436.376C524.496 436.51 524.567 436.67 524.567 436.858C524.567 437.045 524.496 437.206 524.354 437.339C524.215 437.473 524.047 437.539 523.851 437.539Z" fill="#989898"/>
<path d="M602.555 239.676C602.555 236.638 605.017 234.176 608.055 234.176C611.092 234.176 613.555 236.638 613.555 239.676V428.176H602.555V239.676Z" fill="#36D759"/>
<path d="M618.555 298.676C618.555 295.638 621.017 293.176 624.055 293.176C627.092 293.176 629.555 295.638 629.555 298.676V428.176H618.555V298.676Z" fill="#F32F2F"/>
<path d="M565.59 428.176V427.176H564.59V428.176H565.59ZM565.59 429.176H666.518V427.176H565.59V429.176ZM566.59 434.176V428.176H564.59V434.176H566.59Z" fill="#C0C0C0" mask="url(#path-50-inside-6_1270_24143)"/>
<path d="M610.198 436.449H611.255V442.687C611.255 443.244 611.152 443.717 610.948 444.106C610.743 444.495 610.455 444.791 610.083 444.993C609.711 445.194 609.272 445.295 608.766 445.295C608.289 445.295 607.864 445.208 607.492 445.035C607.12 444.859 606.827 444.609 606.614 444.285C606.401 443.961 606.295 443.576 606.295 443.13H607.334C607.334 443.377 607.395 443.593 607.518 443.778C607.643 443.96 607.813 444.102 608.029 444.204C608.245 444.306 608.491 444.358 608.766 444.358C609.07 444.358 609.329 444.294 609.542 444.166C609.755 444.038 609.917 443.85 610.027 443.603C610.141 443.353 610.198 443.048 610.198 442.687V436.449ZM617.361 442.5V438.63H618.367V445.176H617.361V444.068H617.293C617.14 444.4 616.901 444.683 616.577 444.916C616.253 445.146 615.844 445.261 615.35 445.261C614.941 445.261 614.577 445.172 614.259 444.993C613.941 444.811 613.691 444.538 613.509 444.174C613.327 443.808 613.236 443.346 613.236 442.789V438.63H614.242V442.721C614.242 443.199 614.376 443.579 614.643 443.863C614.912 444.147 615.256 444.289 615.674 444.289C615.924 444.289 616.178 444.225 616.437 444.098C616.698 443.97 616.917 443.774 617.093 443.51C617.272 443.245 617.361 442.909 617.361 442.5ZM621.215 441.238V445.176H620.209V438.63H621.181V439.653H621.266C621.419 439.321 621.652 439.054 621.965 438.852C622.277 438.647 622.681 438.545 623.175 438.545C623.618 438.545 624.006 438.636 624.338 438.818C624.671 438.997 624.929 439.27 625.114 439.636C625.298 440 625.391 440.46 625.391 441.017V445.176H624.385V441.085C624.385 440.571 624.252 440.17 623.985 439.883C623.717 439.593 623.351 439.449 622.885 439.449C622.564 439.449 622.277 439.518 622.024 439.657C621.774 439.797 621.577 440 621.432 440.267C621.287 440.534 621.215 440.858 621.215 441.238Z" fill="#989898"/>
<path d="M703.48 239.676C703.48 236.638 705.943 234.176 708.98 234.176C712.018 234.176 714.48 236.638 714.48 239.676V428.176H703.48V239.676Z" fill="#36D759"/>
<path d="M719.48 298.676C719.48 295.638 721.943 293.176 724.98 293.176C728.018 293.176 730.48 295.638 730.48 298.676V428.176H719.48V298.676Z" fill="#F32F2F"/>
<path d="M666.516 428.176V427.176H665.516V428.176H666.516ZM666.516 429.176H767.444V427.176H666.516V429.176ZM667.516 434.176V428.176H665.516V434.176H667.516Z" fill="#C0C0C0" mask="url(#path-55-inside-7_1270_24143)"/>
<path d="M713.21 436.449H714.266V442.687C714.266 443.244 714.164 443.717 713.96 444.106C713.755 444.495 713.467 444.791 713.095 444.993C712.722 445.194 712.284 445.295 711.778 445.295C711.301 445.295 710.876 445.208 710.504 445.035C710.132 444.859 709.839 444.609 709.626 444.285C709.413 443.961 709.306 443.576 709.306 443.13H710.346C710.346 443.377 710.407 443.593 710.529 443.778C710.654 443.96 710.825 444.102 711.041 444.204C711.257 444.306 711.502 444.358 711.778 444.358C712.082 444.358 712.34 444.294 712.553 444.166C712.766 444.038 712.928 443.85 713.039 443.603C713.153 443.353 713.21 443.048 713.21 442.687V436.449ZM720.373 442.5V438.63H721.379V445.176H720.373V444.068H720.305C720.151 444.4 719.913 444.683 719.589 444.916C719.265 445.146 718.856 445.261 718.362 445.261C717.953 445.261 717.589 445.172 717.271 444.993C716.953 444.811 716.703 444.538 716.521 444.174C716.339 443.808 716.248 443.346 716.248 442.789V438.63H717.254V442.721C717.254 443.199 717.387 443.579 717.654 443.863C717.924 444.147 718.268 444.289 718.686 444.289C718.936 444.289 719.19 444.225 719.448 444.098C719.71 443.97 719.928 443.774 720.105 443.51C720.284 443.245 720.373 442.909 720.373 442.5ZM724.226 436.449V445.176H723.221V436.449H724.226Z" fill="#989898"/>
</svg>
