<svg width="25" height="25" viewBox="0 0 25 25" fill="none" xmlns="http://www.w3.org/2000/svg">
<g clip-path="url(#clip0_1238_5865)">
<path d="M24.7096 12.952C24.7096 12.1363 24.6435 11.3162 24.5024 10.5137H13.1836V15.1347H19.6653C19.3964 16.625 18.5321 17.9434 17.2666 18.7812V21.7795H21.1336C23.4044 19.6895 24.7096 16.603 24.7096 12.952Z" fill="#4285F4"/>
<path d="M13.1844 24.6766C16.4209 24.6766 19.1503 23.614 21.1389 21.7797L17.2719 18.7813C16.196 19.5133 14.8071 19.9278 13.1888 19.9278C10.0582 19.9278 7.4038 17.8157 6.45138 14.9761H2.46094V18.067C4.49805 22.1192 8.64723 24.6766 13.1844 24.6766Z" fill="#34A853"/>
<path d="M6.44613 14.976C5.94347 13.4856 5.94347 11.8718 6.44613 10.3815V7.29053H2.4601C0.758093 10.6813 0.758093 14.6762 2.4601 18.0669L6.44613 14.976Z" fill="#FBBC04"/>
<path d="M13.1844 5.42544C14.8953 5.39899 16.5488 6.04275 17.7878 7.22445L21.2138 3.7984C19.0444 1.76129 16.1651 0.641315 13.1844 0.67659C8.64723 0.67659 4.49805 3.234 2.46094 7.29059L6.44697 10.3815C7.39498 7.53751 10.0538 5.42544 13.1844 5.42544Z" fill="#EA4335"/>
</g>
<defs>
<clipPath id="clip0_1238_5865">
<rect width="24" height="24" fill="white" transform="translate(0.945312 0.675781)"/>
</clipPath>
</defs>
</svg>
