<svg width="20" height="20" viewBox="0 0 20 20" fill="none" xmlns="http://www.w3.org/2000/svg">
<path d="M11.9964 7.96777L14.0293 10.0007L11.9964 12.0336" stroke="#C0C0C0" stroke-width="2.03289" stroke-linecap="round" stroke-linejoin="round"/>
<path d="M6.91426 18.1318V1.86871M1.83203 16.0989C1.83203 16.6381 2.04621 17.1552 2.42745 17.5364C2.80869 17.9177 3.32577 18.1318 3.86492 18.1318H16.0623C16.6014 18.1318 17.1185 17.9177 17.4997 17.5364C17.881 17.1552 18.0952 16.6381 18.0952 16.0989V3.9016C18.0952 3.36244 17.881 2.84537 17.4997 2.46413C17.1185 2.08289 16.6014 1.86871 16.0623 1.86871H3.86492C3.32577 1.86871 2.80869 2.08289 2.42745 2.46413C2.04621 2.84537 1.83203 3.36244 1.83203 3.9016V16.0989Z" stroke="#C0C0C0" stroke-width="2.03289" stroke-linecap="round" stroke-linejoin="round"/>
</svg>
