<svg width="25" height="24" viewBox="0 0 25 24" fill="none" xmlns="http://www.w3.org/2000/svg">
<path d="M19.8584 15H15.3584V13.5H19.8584V15ZM22.8584 21H18.3584V19.5H22.8584V21ZM21.3584 18H16.8584V16.5H21.3584V18Z" fill="#C0C0C0"/>
<path d="M13.1104 15C13.1052 14.3672 12.9364 13.7464 12.6205 13.1981C12.3046 12.6497 11.8523 12.1923 11.3074 11.8702L16.8582 2.25L15.5607 1.5L9.87795 11.3445C9.18052 11.1887 8.45516 11.2102 7.76822 11.4072C7.08127 11.6041 6.45466 11.9701 5.9457 12.4718C3.1377 15.18 3.3552 21.5115 3.3657 21.78C3.37345 21.9737 3.45588 22.1568 3.5957 22.291C3.73552 22.4253 3.92188 22.5002 4.1157 22.5H15.3589C15.5164 22.5 15.6698 22.4505 15.7975 22.3584C15.9252 22.2664 16.0207 22.1365 16.0705 21.9872C16.1202 21.8378 16.1218 21.6766 16.0748 21.5264C16.0279 21.3761 15.9349 21.2444 15.8089 21.15C13.1539 19.158 13.1104 15.0405 13.1104 15ZM9.3057 12.7477C9.90598 12.7543 10.4806 12.9921 10.91 13.4116C11.3394 13.8311 11.5906 14.4 11.6112 15C11.6112 15.0285 11.6127 15.156 11.6239 15.3517L7.19895 13.3837C7.49043 13.1434 7.82678 12.9634 8.18846 12.8542C8.55014 12.745 8.92991 12.7088 9.3057 12.7477ZM11.9457 21C11.3462 20.3896 10.9641 19.599 10.8582 18.75H9.3582C9.41191 19.5482 9.66125 20.3209 10.0842 21H8.41695C8.10851 20.0267 7.92085 19.0191 7.8582 18H6.3582C6.40656 19.0161 6.57396 20.0229 6.85695 21H4.8582C4.88145 19.623 5.0757 16.581 6.21045 14.5853L11.8602 17.0978C12.1316 18.5072 12.7104 19.8396 13.5552 21H11.9457Z" fill="#C0C0C0"/>
</svg>
