<svg width="19" height="12" viewBox="0 0 19 12" fill="none" xmlns="http://www.w3.org/2000/svg">
<path fill-rule="evenodd" clip-rule="evenodd" d="M13.2957 10.3028L14.5356 11.4313L15.2654 10.7484L14.2593 9.83273C15.695 9.06047 16.9711 8.05119 17.9372 7.07023C18.2089 6.78947 18.3588 6.42616 18.3584 6.04979C18.358 5.67341 18.2072 5.31038 17.9349 5.03013C15.9505 3.01565 12.6591 0.886244 9.35787 0.929165C8.01832 0.911467 6.68037 1.2518 5.4307 1.79707L3.9552 0.454102L3.22541 1.13697L4.46611 2.26622C3.02715 3.03818 1.74857 4.04807 0.780813 5.03013C0.508787 5.31075 0.358398 5.67404 0.358398 6.05053C0.358398 6.42702 0.508787 6.7903 0.780813 7.07092C2.74201 9.06395 5.98692 11.1747 9.23708 11.1747H9.46816C10.7738 11.1747 12.0767 10.8364 13.2957 10.3028ZM12.1549 7.91734C12.3115 7.71756 12.4431 7.50066 12.5464 7.27053C12.8076 6.68866 12.876 6.04838 12.7428 5.43067C12.6096 4.81295 12.2809 4.24554 11.7983 3.80019C11.3156 3.35485 10.7007 3.05156 10.0312 2.92869C9.3617 2.80582 8.66778 2.86888 8.03715 3.1099C7.77308 3.21082 7.52508 3.34105 7.29815 3.49679L8.72553 4.79596C8.9177 4.71345 9.13196 4.66739 9.35787 4.66739C10.1866 4.66739 10.8584 5.28726 10.8584 6.05191C10.8584 6.25365 10.8116 6.44532 10.7276 6.61818L12.1549 7.91734ZM10.0004 7.30344L11.4262 8.60113C11.3769 8.63515 11.3266 8.668 11.2753 8.69965C10.7077 9.04956 10.0405 9.23632 9.35787 9.23632C8.44255 9.23632 7.56472 8.90082 6.91749 8.30363C6.27025 7.70644 5.90664 6.89647 5.90664 6.05191C5.90664 5.4221 6.10905 4.80642 6.48828 4.28275C6.51383 4.24747 6.54011 4.21271 6.56709 4.17849L7.99283 5.47617C7.90583 5.65149 7.85734 5.84648 7.85734 6.05191C7.85734 6.81657 8.52915 7.43644 9.35787 7.43644C9.5878 7.43644 9.80565 7.38872 10.0004 7.30344Z" fill="#C0C0C0"/>
</svg>
