<svg width="37" height="36" viewBox="0 0 37 36" fill="none" xmlns="http://www.w3.org/2000/svg">
<path d="M4.8584 30V13.05C4.4334 12.775 4.0774 12.425 3.7904 12C3.5024 11.575 3.3584 11.075 3.3584 10.5V6C3.3584 5.175 3.6524 4.4685 4.2404 3.8805C4.8274 3.2935 5.5334 3 6.3584 3H30.3584C31.1834 3 31.8899 3.2935 32.4779 3.8805C33.0649 4.4685 33.3584 5.175 33.3584 6V10.5C33.3584 11.075 33.2144 11.575 32.9264 12C32.6394 12.425 32.2834 12.775 31.8584 13.05V30C31.8584 30.825 31.5649 31.5315 30.9779 32.1195C30.3899 32.7065 29.6834 33 28.8584 33H7.8584C7.0334 33 6.3269 32.7065 5.7389 32.1195C5.1519 31.5315 4.8584 30.825 4.8584 30ZM7.8584 13.5V30H28.8584V13.5H7.8584ZM30.3584 10.5V6H6.3584V10.5H30.3584ZM13.8584 21H22.8584V18H13.8584V21Z" fill="#C0C0C0"/>
</svg>
