<svg width="73" height="28" viewBox="0 0 73 28" fill="none" xmlns="http://www.w3.org/2000/svg">
<rect x="0.679688" y="0.646484" width="71.0151" height="26.059" rx="2.5" fill="#77FF95"/>
<path d="M13.4814 13.6335L13.7968 13.2455L13.3906 12.9154L13.0794 13.3362L13.4814 13.6335ZM15.4673 15.2474L15.1519 15.6354L15.5727 15.9774L15.8796 15.5303L15.4673 15.2474ZM22.7898 4.5775L17.5804 7.06663L22.3407 10.3335L22.7898 4.5775ZM7.47559 22.5952L13.8834 13.9308L13.0794 13.3362L6.67158 22.0005L7.47559 22.5952ZM13.1661 14.0215L15.1519 15.6354L15.7826 14.8594L13.7968 13.2455L13.1661 14.0215ZM15.8796 15.5303L20.6557 8.57074L19.8312 8.0049L15.055 14.9645L15.8796 15.5303Z" fill="#22B542"/>
<path d="M32.9709 18.1758V17.0337L36.0007 14.0636C36.2905 13.771 36.532 13.511 36.7251 13.2837C36.9183 13.0565 37.0632 12.8363 37.1598 12.6232C37.2564 12.4102 37.3047 12.1829 37.3047 11.9414C37.3047 11.6658 37.2422 11.43 37.1172 11.234C36.9922 11.0352 36.8203 10.8817 36.6016 10.7738C36.3828 10.6658 36.1342 10.6119 35.8558 10.6119C35.5689 10.6119 35.3175 10.6715 35.1016 10.7908C34.8857 10.9073 34.718 11.0735 34.5987 11.2894C34.4822 11.5053 34.424 11.7624 34.424 12.0607H32.9197C32.9197 11.5067 33.0462 11.0252 33.299 10.6161C33.5518 10.207 33.8999 9.89027 34.343 9.66584C34.7891 9.44141 35.3004 9.32919 35.8771 9.32919C36.4624 9.32919 36.9766 9.43857 37.4197 9.65732C37.8629 9.87607 38.2067 10.1758 38.451 10.5565C38.6982 10.9371 38.8217 11.3718 38.8217 11.8604C38.8217 12.1871 38.7592 12.5082 38.6342 12.8235C38.5092 13.1388 38.2891 13.4883 37.9737 13.8718C37.6612 14.2553 37.2223 14.7198 36.657 15.2653L35.1527 16.7951V16.8548H38.9538V18.1758H32.9709ZM40.7436 18.1758L44.4553 10.8292V10.7695H40.147V9.44851H46.0916V10.7994L42.3842 18.1758H40.7436ZM46.9343 18.2695C46.6758 18.2695 46.4542 18.1786 46.2695 17.9968C46.0849 17.815 45.994 17.5934 45.9968 17.332C45.994 17.0763 46.0849 16.8576 46.2695 16.6758C46.4542 16.494 46.6758 16.4031 46.9343 16.4031C47.1843 16.4031 47.4016 16.494 47.5863 16.6758C47.7738 16.8576 47.869 17.0763 47.8718 17.332C47.869 17.5053 47.8235 17.663 47.7354 17.805C47.6502 17.9471 47.5366 18.0607 47.3945 18.146C47.2553 18.2283 47.1019 18.2695 46.9343 18.2695ZM49.4858 18.1758L53.1974 10.8292V10.7695H48.8892V9.44851H54.8338V10.7994L51.1264 18.1758H49.4858ZM60.8754 16.5394V16.0792C60.8754 15.7411 60.9464 15.43 61.0884 15.146C61.2333 14.8619 61.4435 14.6332 61.7191 14.4599C61.9947 14.2866 62.3285 14.1999 62.7205 14.1999C63.1239 14.1999 63.462 14.2866 63.7347 14.4599C64.0075 14.6303 64.2134 14.8576 64.3526 15.1417C64.4947 15.4258 64.5657 15.7383 64.5657 16.0792V16.5394C64.5657 16.8775 64.4947 17.1886 64.3526 17.4727C64.2106 17.7567 64.0018 17.9854 63.7262 18.1587C63.4535 18.332 63.1183 18.4187 62.7205 18.4187C62.3228 18.4187 61.9862 18.332 61.7106 18.1587C61.435 17.9854 61.2262 17.7567 61.0842 17.4727C60.945 17.1886 60.8754 16.8775 60.8754 16.5394ZM61.9876 16.0792V16.5394C61.9876 16.7638 62.0415 16.9698 62.1495 17.1573C62.2575 17.3448 62.4478 17.4386 62.7205 17.4386C62.9961 17.4386 63.185 17.3462 63.2873 17.1616C63.3924 16.9741 63.445 16.7667 63.445 16.5394V16.0792C63.445 15.8519 63.3952 15.6445 63.2958 15.457C63.1964 15.2667 63.0046 15.1715 62.7205 15.1715C62.4535 15.1715 62.2646 15.2667 62.1538 15.457C62.043 15.6445 61.9876 15.8519 61.9876 16.0792ZM56.4393 11.5451V11.0849C56.4393 10.744 56.5117 10.4315 56.6566 10.1474C56.8015 9.86328 57.0117 9.63601 57.2873 9.46555C57.5629 9.29226 57.8967 9.20561 58.2887 9.20561C58.6893 9.20561 59.0259 9.29226 59.2987 9.46555C59.5742 9.63601 59.7816 9.86328 59.9208 10.1474C60.06 10.4315 60.1296 10.744 60.1296 11.0849V11.5451C60.1296 11.886 60.0586 12.1985 59.9165 12.4826C59.7773 12.7638 59.57 12.9897 59.2944 13.1602C59.0188 13.3306 58.6836 13.4158 58.2887 13.4158C57.8881 13.4158 57.5501 13.3306 57.2745 13.1602C57.0018 12.9897 56.7944 12.7624 56.6523 12.4783C56.5103 12.1942 56.4393 11.8832 56.4393 11.5451ZM57.56 11.0849V11.5451C57.56 11.7724 57.6126 11.9798 57.7177 12.1673C57.8256 12.3519 58.016 12.4442 58.2887 12.4442C58.5614 12.4442 58.7489 12.3519 58.8512 12.1673C58.9563 11.9798 59.0089 11.7724 59.0089 11.5451V11.0849C59.0089 10.8576 58.9592 10.6502 58.8597 10.4627C58.7603 10.2724 58.57 10.1772 58.2887 10.1772C58.0188 10.1772 57.8299 10.2724 57.7219 10.4627C57.614 10.6531 57.56 10.8604 57.56 11.0849ZM56.9251 18.1758L62.9251 9.44851H63.9904L57.9904 18.1758H56.9251Z" fill="#22B542"/>
<rect x="0.679688" y="0.646484" width="71.0151" height="26.059" rx="2.5" stroke="#22B542"/>
</svg>
