<svg xmlns="http://www.w3.org/2000/svg" enable-background="new 0 0 50 50" viewBox="0 0 50 50" id="white-cells"><path d="M33.6,18.4c-6.4,3.8-9.9,9.3-7.9,12.6c2.5,4.2,10.4,1.7,14.8-0.9c2.9-1.7,5.4-3.9,6.9-6.2c1.7-2.5,2-4.7,1-6.4
		C46,13.4,38,15.8,33.6,18.4z M45.8,22.9c-1.4,2-3.6,4-6.3,5.6C36,30.5,29,32.8,27.4,30c-1.2-2,1.5-6.5,7.2-9.8
		c3.5-2.1,10.5-4.3,12.1-1.6C47.3,19.5,46.9,21.1,45.8,22.9z"></path><path d="M40.6 20.9c-1.9 2-4.8 3.8-8.2 5.1-.5.2-.8.8-.6 1.3.2.5.8.8 1.3.6 3.6-1.4 6.9-3.5 8.9-5.6.4-.4.4-1 0-1.4C41.6 20.5 41 20.5 40.6 20.9zM30.3 13.1c-1.6-3.9-8.6-2.8-12.7-1-5.9 2.5-9.4 6.8-8.1 9.9 1.6 3.9 8.5 2.8 12.7 1C26.2 21.3 32 17.1 30.3 13.1zM21.4 21.1c-2.6 1.1-9 2.6-10.1.1-.7-1.7 2-5.1 7.1-7.2 2.6-1.1 9-2.6 10.1-.1C29.5 16.4 24.1 20 21.4 21.1z"></path><path d="M23.1 15c-1.8 1.4-4.4 2.6-7.4 3.4-.5.1-.9.7-.7 1.2.1.5.7.9 1.2.7 3.2-.8 6.2-2.1 8.2-3.7.4-.3.5-1 .1-1.4C24.2 14.7 23.5 14.7 23.1 15zM48.2 46.4c1.7-1.7.6-5.3-2.5-8.4-2.2-2.2-6.3-4.6-8.4-2.5-1.7 1.7-.6 5.3 2.5 8.4C42 46.1 46.1 48.5 48.2 46.4zM38.7 36.9c1-1 4.1 1 5.6 2.5 2.4 2.4 3.1 4.9 2.5 5.6-1 1-4.1-1-5.6-2.5C38.7 40 38 37.5 38.7 36.9z"></path><path d="M45.2 41.9c-1.2-.7-2.6-2-3.7-3.5-.3-.4-.9-.5-1.4-.2-.4.3-.5.9-.2 1.4 1.3 1.8 2.9 3.3 4.4 4.1.5.3 1.1.1 1.4-.4C45.9 42.8 45.7 42.2 45.2 41.9zM35.2 11.4c2.7 1.4 7.4 2.5 8.8-.2 1.1-2.1-1.1-5.2-5-7.2-2.7-1.4-7.4-2.5-8.8.3C29.1 6.3 31.3 9.4 35.2 11.4zM32 5.1c.6-1.2 4.2-.3 6.1.6 3.1 1.5 4.5 3.7 4.1 4.5-.6 1.2-4.2.3-6.1-.6C33 8 31.6 5.9 32 5.1z"></path><path d="M39.4 9.8c.6.1 1.1-.3 1.2-.8.1-.5-.3-1.1-.8-1.2-1.4-.3-3.1-1.1-4.6-2.2-.4-.3-1.1-.2-1.4.2C33.4 6.3 33.5 7 34 7.3 35.7 8.6 37.7 9.5 39.4 9.8zM1.4 30c-2 4.3 3.1 10.7 11.6 14.6 5.7 2.6 16.1 4.9 18.7-.6 2-4.3-3.1-10.7-11.6-14.7C14.4 26.7 4 24.5 1.4 30zM3.2 30.9c1.9-4.2 11.7-1.7 16 .3 8 3.7 11.9 9.2 10.6 12-.7 1.4-2.7 2.3-5.6 2.3-3.1 0-6.8-.9-10.4-2.6C5.9 39.2 1.9 33.7 3.2 30.9z"></path><path d="M14.6,41.3c3.1,1.5,10,3.2,11.5,0.1c0.2-0.5,0-1.1-0.5-1.3c-0.5-0.2-1.1,0-1.3,0.5c-0.4,0.9-4.5,0.9-8.8-1.1
		c-4.9-2.3-6.8-5.4-6.5-6c0.1-0.1,0.6-0.6,2.3-0.6c0.6,0,1-0.4,1-1s-0.4-1-1-1c-2.2,0-3.6,0.6-4.1,1.7C6.1,34.7,8.9,38.7,14.6,41.3z
		"></path></svg>