<svg width="25" height="24" viewBox="0 0 25 24" fill="none" xmlns="http://www.w3.org/2000/svg">
<path d="M10.9584 16.6L18.0084 9.55L16.6084 8.15L10.9584 13.8L8.1084 10.95L6.7084 12.35L10.9584 16.6ZM12.3584 22C10.9751 22 9.67507 21.7373 8.4584 21.212C7.24173 20.6873 6.1834 19.975 5.2834 19.075C4.3834 18.175 3.67107 17.1167 3.1464 15.9C2.62107 14.6833 2.3584 13.3833 2.3584 12C2.3584 10.6167 2.62107 9.31667 3.1464 8.1C3.67107 6.88333 4.3834 5.825 5.2834 4.925C6.1834 4.025 7.24173 3.31233 8.4584 2.787C9.67507 2.26233 10.9751 2 12.3584 2C13.7417 2 15.0417 2.26233 16.2584 2.787C17.4751 3.31233 18.5334 4.025 19.4334 4.925C20.3334 5.825 21.0457 6.88333 21.5704 8.1C22.0957 9.31667 22.3584 10.6167 22.3584 12C22.3584 13.3833 22.0957 14.6833 21.5704 15.9C21.0457 17.1167 20.3334 18.175 19.4334 19.075C18.5334 19.975 17.4751 20.6873 16.2584 21.212C15.0417 21.7373 13.7417 22 12.3584 22ZM12.3584 20C14.5917 20 16.4834 19.225 18.0334 17.675C19.5834 16.125 20.3584 14.2333 20.3584 12C20.3584 9.76667 19.5834 7.875 18.0334 6.325C16.4834 4.775 14.5917 4 12.3584 4C10.1251 4 8.2334 4.775 6.6834 6.325C5.1334 7.875 4.3584 9.76667 4.3584 12C4.3584 14.2333 5.1334 16.125 6.6834 17.675C8.2334 19.225 10.1251 20 12.3584 20Z" fill="#C0C0C0"/>
</svg>
