<svg width="25" height="24" viewBox="0 0 25 24" fill="none" xmlns="http://www.w3.org/2000/svg">
<path fill-rule="evenodd" clip-rule="evenodd" d="M6.68796 3.61739C8.02223 2.72585 9.59091 2.25 11.1956 2.25V3.00373L11.1957 2.25C13.3475 2.25014 15.4111 3.105 16.9327 4.62655C18.4542 6.14811 19.3091 8.21174 19.3092 10.3635V10.3636C19.3092 11.9683 18.8334 13.537 17.9418 14.8713C17.0503 16.2055 15.7831 17.2455 14.3006 17.8596C12.818 18.4737 11.1866 18.6344 9.61275 18.3213C8.03886 18.0082 6.59316 17.2355 5.45845 16.1008C4.32375 14.9661 3.551 13.5204 3.23794 11.9465C2.92487 10.3726 3.08555 8.74122 3.69965 7.25866C4.31374 5.77609 5.35368 4.50892 6.68796 3.61739ZM11.1956 3.75C12.9496 3.75012 14.6317 4.44695 15.872 5.68721C17.1123 6.92748 17.8091 8.6096 17.8092 10.3636M11.1956 3.75C9.88755 3.75001 8.6089 4.13789 7.52131 4.86459C6.43371 5.5913 5.58603 6.6242 5.08546 7.83268C4.5849 9.04116 4.45393 10.3709 4.70911 11.6538C4.9643 12.9368 5.59418 14.1152 6.51911 15.0401C7.44404 15.965 8.62247 16.5949 9.90538 16.8501C11.1883 17.1053 12.5181 16.9743 13.7265 16.4738C14.935 15.9732 15.9679 15.1255 16.6946 14.0379C17.4213 12.9503 17.8092 11.6717 17.8092 10.3636" fill="#C0C0C0"/>
<path fill-rule="evenodd" clip-rule="evenodd" d="M16.1591 15.3271C16.452 15.0342 16.9269 15.0342 17.2198 15.3271L22.3624 20.4697C22.6553 20.7626 22.6553 21.2375 22.3624 21.5304C22.0695 21.8233 21.5947 21.8233 21.3018 21.5304L16.1591 16.3878C15.8662 16.0949 15.8662 15.62 16.1591 15.3271Z" fill="#C0C0C0"/>
</svg>
