<svg width="25" height="24" viewBox="0 0 25 24" fill="none" xmlns="http://www.w3.org/2000/svg">
<path fill-rule="evenodd" clip-rule="evenodd" d="M19.8321 3.17188C19.5919 3.17188 19.3542 3.21917 19.1323 3.31106C18.9105 3.40294 18.7089 3.53762 18.5392 3.70741L5.22694 17.0196L4.25727 20.5751L7.81273 19.6054L21.1249 6.2932C21.2947 6.12341 21.4294 5.92184 21.5213 5.70001C21.6132 5.47818 21.6605 5.24042 21.6605 5.0003C21.6605 4.76019 21.6132 4.52243 21.5213 4.30059C21.4294 4.07876 21.2947 3.87719 21.1249 3.70741C20.9552 3.53762 20.7536 3.40294 20.5318 3.31106C20.3099 3.21917 20.0722 3.17188 19.8321 3.17188ZM18.367 1.4633C18.8315 1.2709 19.3293 1.17188 19.8321 1.17188C20.3348 1.17188 20.8326 1.2709 21.2971 1.4633C21.7616 1.65569 22.1837 1.93769 22.5392 2.2932C22.8947 2.6487 23.1767 3.07074 23.3691 3.53523C23.5615 3.99972 23.6605 4.49755 23.6605 5.0003C23.6605 5.50306 23.5615 6.00089 23.3691 6.46538C23.1767 6.92986 22.8947 7.35191 22.5392 7.70741L9.03916 21.2074C8.91611 21.3305 8.76307 21.4193 8.59517 21.4651L3.09517 22.9651C2.74896 23.0595 2.3787 22.9612 2.12495 22.7074C1.8712 22.4537 1.77287 22.0834 1.86729 21.7372L3.36729 16.2372C3.41308 16.0693 3.50189 15.9163 3.62495 15.7932L17.1249 2.2932C17.4804 1.93769 17.9025 1.65569 18.367 1.4633Z" fill="#C0C0C0"/>
</svg>
