<svg width="17" height="16" viewBox="0 0 17 16" fill="none" xmlns="http://www.w3.org/2000/svg">
<path fill-rule="evenodd" clip-rule="evenodd" d="M9.95007 1.6C9.95007 0.716344 9.23372 0 8.35007 0C7.46641 0 6.75007 0.716344 6.75007 1.6V6.39896H1.9584C1.07474 6.39896 0.358398 7.1153 0.358398 7.99896C0.358398 8.88261 1.07474 9.59896 1.9584 9.59896H6.75007V14.4C6.75007 15.2837 7.46641 16 8.35007 16C9.23372 16 9.95007 15.2837 9.95007 14.4V9.59896H14.7584C15.6421 9.59896 16.3584 8.88261 16.3584 7.99896C16.3584 7.1153 15.6421 6.39896 14.7584 6.39896H9.95007V1.6Z" fill="#C0C0C0"/>
</svg>
