<svg width="37" height="36" viewBox="0 0 37 36" fill="none" xmlns="http://www.w3.org/2000/svg">
<path d="M19.8976 26H16.8192C16.614 26 16.4361 25.9333 16.2856 25.8C16.1351 25.6667 16.0462 25.5 16.0188 25.3L15.7726 23.44C15.5947 23.3733 15.4273 23.2933 15.2702 23.2C15.1126 23.1067 14.9585 23.0067 14.808 22.9L13.0226 23.62C12.831 23.6867 12.6395 23.6933 12.448 23.64C12.2564 23.5867 12.1059 23.4733 11.9965 23.3L10.4778 20.72C10.3683 20.5467 10.3341 20.36 10.3752 20.16C10.4162 19.96 10.5188 19.8 10.683 19.68L12.2222 18.54C12.2085 18.4467 12.2017 18.3565 12.2017 18.2696V17.7296C12.2017 17.6432 12.2085 17.5533 12.2222 17.46L10.683 16.32C10.5188 16.2 10.4162 16.04 10.3752 15.84C10.3341 15.64 10.3683 15.4533 10.4778 15.28L11.9965 12.7C12.0922 12.5133 12.2392 12.3965 12.4373 12.3496C12.6359 12.3032 12.831 12.3133 13.0226 12.38L14.808 13.1C14.9585 12.9933 15.1159 12.8933 15.28 12.8C15.4442 12.7067 15.6084 12.6267 15.7726 12.56L16.0188 10.7C16.0462 10.5 16.1351 10.3333 16.2856 10.2C16.4361 10.0667 16.614 10 16.8192 10H19.8976C20.1028 10 20.2807 10.0667 20.4312 10.2C20.5817 10.3333 20.6706 10.5 20.698 10.7L20.9442 12.56C21.1221 12.6267 21.2898 12.7067 21.4474 12.8C21.6045 12.8933 21.7583 12.9933 21.9088 13.1L23.6942 12.38C23.8858 12.3133 24.0773 12.3067 24.2688 12.36C24.4604 12.4133 24.6109 12.5267 24.7203 12.7L26.239 15.28C26.3484 15.4533 26.3827 15.64 26.3416 15.84C26.3006 16.04 26.198 16.2 26.0338 16.32L24.4946 17.46C24.5083 17.5533 24.5151 17.6432 24.5151 17.7296V18.2696C24.5151 18.3565 24.5014 18.4467 24.4741 18.54L26.0132 19.68C26.1774 19.8 26.28 19.96 26.3211 20.16C26.3621 20.36 26.3279 20.5467 26.2185 20.72L24.6998 23.28C24.5904 23.4533 24.4366 23.5701 24.2385 23.6304C24.0398 23.6901 23.8447 23.6867 23.6532 23.62L21.9088 22.9C21.7583 23.0067 21.6009 23.1067 21.4368 23.2C21.2726 23.2933 21.1084 23.3733 20.9442 23.44L20.698 25.3C20.6706 25.5 20.5817 25.6667 20.4312 25.8C20.2807 25.9333 20.1028 26 19.8976 26ZM18.3994 20.8C19.193 20.8 19.8702 20.5267 20.4312 19.98C20.9921 19.4333 21.2726 18.7733 21.2726 18C21.2726 17.2267 20.9921 16.5667 20.4312 16.02C19.8702 15.4733 19.193 15.2 18.3994 15.2C17.5922 15.2 16.9114 15.4733 16.3571 16.02C15.8032 16.5667 15.5263 17.2267 15.5263 18C15.5263 18.7733 15.8032 19.4333 16.3571 19.98C16.9114 20.5267 17.5922 20.8 18.3994 20.8ZM18.3994 19.2C18.0574 19.2 17.7668 19.0832 17.5277 18.8496C17.288 18.6165 17.1681 18.3333 17.1681 18C17.1681 17.6667 17.288 17.3835 17.5277 17.1504C17.7668 16.9168 18.0574 16.8 18.3994 16.8C18.7415 16.8 19.0324 16.9168 19.2721 17.1504C19.5112 17.3835 19.6308 17.6667 19.6308 18C19.6308 18.3333 19.5112 18.6165 19.2721 18.8496C19.0324 19.0832 18.7415 19.2 18.3994 19.2ZM17.5375 24.4H19.1588L19.4461 22.28C19.8702 22.1733 20.2637 22.0165 20.6265 21.8096C20.9888 21.6032 21.3205 21.3533 21.6215 21.06L23.6532 21.88L24.4535 20.52L22.6886 19.22C22.757 19.0333 22.8049 18.8365 22.8323 18.6296C22.8596 18.4232 22.8733 18.2133 22.8733 18C22.8733 17.7867 22.8596 17.5765 22.8323 17.3696C22.8049 17.1632 22.757 16.9667 22.6886 16.78L24.4535 15.48L23.6532 14.12L21.6215 14.96C21.3205 14.6533 20.9888 14.3965 20.6265 14.1896C20.2637 13.9832 19.8702 13.8267 19.4461 13.72L19.1793 11.6H17.558L17.2707 13.72C16.8466 13.8267 16.4534 13.9832 16.0911 14.1896C15.7282 14.3965 15.3963 14.6467 15.0953 14.94L13.0636 14.12L12.2632 15.48L14.0282 16.76C13.9598 16.96 13.9119 17.16 13.8845 17.36C13.8572 17.56 13.8435 17.7733 13.8435 18C13.8435 18.2133 13.8572 18.42 13.8845 18.62C13.9119 18.82 13.9598 19.02 14.0282 19.22L12.2632 20.52L13.0636 21.88L15.0953 21.04C15.3963 21.3467 15.7282 21.6032 16.0911 21.8096C16.4534 22.0165 16.8466 22.1733 17.2707 22.28L17.5375 24.4Z" fill="#C0C0C0"/>
</svg>
