<svg width="19" height="20" viewBox="0 0 19 20" fill="none" xmlns="http://www.w3.org/2000/svg">
<path d="M6.17744 18.1318V1.86871M1.09521 16.0989C1.09521 16.6381 1.30939 17.1552 1.69063 17.5364C2.07188 17.9177 2.58895 18.1318 3.12811 18.1318H15.3255C15.8646 18.1318 16.3817 17.9177 16.7629 17.5364C17.1442 17.1552 17.3583 16.6381 17.3583 16.0989V3.9016C17.3583 3.36244 17.1442 2.84537 16.7629 2.46413C16.3817 2.08289 15.8646 1.86871 15.3255 1.86871H3.12811C2.58895 1.86871 2.07188 2.08289 1.69063 2.46413C1.30939 2.84537 1.09521 3.36244 1.09521 3.9016V16.0989Z" stroke="#C0C0C0" stroke-width="2.03289" stroke-linecap="round" stroke-linejoin="round"/>
<path d="M12.2761 12.0342L10.2432 10.0013L12.2761 7.9684" stroke="#C0C0C0" stroke-width="2.03289" stroke-linecap="round" stroke-linejoin="round"/>
</svg>
