<svg width="25" height="24" viewBox="0 0 25 24" fill="none" xmlns="http://www.w3.org/2000/svg">
<path fill-rule="evenodd" clip-rule="evenodd" d="M12.3584 8C13.4584 8 14.3584 7.1 14.3584 6C14.3584 4.9 13.4584 4 12.3584 4C11.2584 4 10.3584 4.9 10.3584 6C10.3584 7.1 11.2584 8 12.3584 8ZM12.3584 10C11.2584 10 10.3584 10.9 10.3584 12C10.3584 13.1 11.2584 14 12.3584 14C13.4584 14 14.3584 13.1 14.3584 12C14.3584 10.9 13.4584 10 12.3584 10ZM10.3584 18C10.3584 16.9 11.2584 16 12.3584 16C13.4584 16 14.3584 16.9 14.3584 18C14.3584 19.1 13.4584 20 12.3584 20C11.2584 20 10.3584 19.1 10.3584 18Z" fill="#C0C0C0"/>
</svg>
