<svg width="61" height="60" viewBox="0 0 61 60" fill="none" xmlns="http://www.w3.org/2000/svg">
<rect width="60" height="60" transform="translate(0.832031)" fill="#464242"/>
<path d="M51.0633 21.6259L32.3133 9.45122C31.8623 9.15555 31.3517 9 30.832 9C30.3124 9 29.8018 9.15555 29.3508 9.45122L10.6008 21.6259C10.3673 21.7752 10.1729 21.9933 10.0377 22.2575C9.90254 22.5218 9.83153 22.8227 9.83203 23.1289V36.8711C9.83153 37.1773 9.90254 37.4782 10.0377 37.7425C10.1729 38.0067 10.3673 38.2248 10.6008 38.3741L29.3508 50.5488C29.8018 50.8445 30.3124 51 30.832 51C31.3517 51 31.8623 50.8445 32.3133 50.5488L51.0633 38.3741C51.2968 38.2248 51.4912 38.0067 51.6264 37.7425C51.7615 37.4782 51.8325 37.1773 51.832 36.8711V23.1289C51.8325 22.8227 51.7615 22.5218 51.6264 22.2575C51.4912 21.9933 51.2968 21.7752 51.0633 21.6259ZM48.832 33.9294L42.7945 30L48.832 26.0706V33.9294ZM39.757 28.0246L32.332 23.1934V13.4021L47.2945 23.1289L39.757 28.0246ZM30.832 33.822L24.9445 30L30.832 26.178L36.7195 30L30.832 33.822ZM29.332 13.4021V23.1934L25.6195 25.609L21.907 28.0246L14.3695 23.1289L29.332 13.4021ZM12.832 26.0706L18.8695 30L12.832 33.9294V26.0706ZM21.907 31.9754L29.332 36.8066V46.5979L14.3695 36.8711L21.907 31.9754ZM32.332 46.5979V36.8066L39.757 31.9754L47.2945 36.8711L32.332 46.5979Z" fill="#C0C0C0"/>
</svg>
