<svg width="25" height="24" viewBox="0 0 25 24" fill="none" xmlns="http://www.w3.org/2000/svg">
<path fill-rule="evenodd" clip-rule="evenodd" d="M12.3584 3C7.38784 3 3.3584 7.02944 3.3584 12C3.3584 16.9706 7.38784 21 12.3584 21C17.329 21 21.3584 16.9706 21.3584 12C21.3584 7.02944 17.329 3 12.3584 3ZM1.3584 12C1.3584 5.92487 6.28327 1 12.3584 1C18.4335 1 23.3584 5.92487 23.3584 12C23.3584 18.0751 18.4335 23 12.3584 23C6.28327 23 1.3584 18.0751 1.3584 12Z" fill="#C0C0C0"/>
<path fill-rule="evenodd" clip-rule="evenodd" d="M11.6513 7.29289C12.0418 6.90237 12.675 6.90237 13.0655 7.29289L17.0655 11.2929C17.456 11.6834 17.456 12.3166 17.0655 12.7071L13.0655 16.7071C12.675 17.0976 12.0418 17.0976 11.6513 16.7071C11.2608 16.3166 11.2608 15.6834 11.6513 15.2929L14.9442 12L11.6513 8.70711C11.2608 8.31658 11.2608 7.68342 11.6513 7.29289Z" fill="#C0C0C0"/>
<path fill-rule="evenodd" clip-rule="evenodd" d="M7.3584 12C7.3584 11.4477 7.80611 11 8.3584 11H16.3584C16.9107 11 17.3584 11.4477 17.3584 12C17.3584 12.5523 16.9107 13 16.3584 13H8.3584C7.80611 13 7.3584 12.5523 7.3584 12Z" fill="#C0C0C0"/>
</svg>
