<svg width="37" height="36" viewBox="0 0 37 36" fill="none" xmlns="http://www.w3.org/2000/svg">
<path d="M10.8584 33C10.0334 33 9.3274 32.7065 8.7404 32.1195C8.1524 31.5315 7.8584 30.825 7.8584 30C7.8584 29.175 8.1524 28.4685 8.7404 27.8805C9.3274 27.2935 10.0334 27 10.8584 27C11.6834 27 12.3894 27.2935 12.9764 27.8805C13.5644 28.4685 13.8584 29.175 13.8584 30C13.8584 30.825 13.5644 31.5315 12.9764 32.1195C12.3894 32.7065 11.6834 33 10.8584 33ZM25.8584 33C25.0334 33 24.3274 32.7065 23.7404 32.1195C23.1524 31.5315 22.8584 30.825 22.8584 30C22.8584 29.175 23.1524 28.4685 23.7404 27.8805C24.3274 27.2935 25.0334 27 25.8584 27C26.6834 27 27.3899 27.2935 27.9779 27.8805C28.5649 28.4685 28.8584 29.175 28.8584 30C28.8584 30.825 28.5649 31.5315 27.9779 32.1195C27.3899 32.7065 26.6834 33 25.8584 33ZM9.5834 9L13.1834 16.5H23.6834L27.8084 9H9.5834ZM5.7959 25.5L10.2584 17.4L4.8584 6H1.8584V3H6.7334L8.1584 6H32.9084L25.4459 19.5H12.5084L10.8584 22.5H28.8584V25.5H5.7959Z" fill="#C0C0C0"/>
</svg>
