<svg width="37" height="36" viewBox="0 0 37 36" fill="none" xmlns="http://www.w3.org/2000/svg">
<g clip-path="url(#clip0_544_29587)">
<path d="M9.21777 23.4844C7.38965 23.4844 5.91309 24.9609 5.91309 26.7891C5.91309 28.6172 7.38965 30.0938 9.21777 30.0938C11.0459 30.0938 12.5225 28.6172 12.5225 26.7891C12.5225 24.9609 11.0459 23.4844 9.21777 23.4844ZM9.21777 28.0406C8.52871 28.0406 7.95215 27.4641 7.95215 26.775C7.95215 26.0859 8.52871 25.5094 9.21777 25.5094C9.90684 25.5094 10.4834 26.0859 10.4834 26.775C10.4834 27.4781 9.9209 28.0406 9.21777 28.0406ZM30.0021 23.3438C28.174 23.3438 26.6975 24.8203 26.6975 26.6484C26.6975 28.4766 28.174 29.9531 30.0021 29.9531C31.8303 29.9531 33.3068 28.4766 33.3068 26.6484C33.3068 24.8203 31.8303 23.3438 30.0021 23.3438ZM30.0021 27.9C29.3131 27.9 28.7365 27.3234 28.7365 26.6344C28.7365 25.9453 29.3131 25.3687 30.0021 25.3687C30.6912 25.3687 31.2678 25.9453 31.2678 26.6344C31.2678 27.3375 30.7053 27.9 30.0021 27.9ZM0.288086 24.9047C0.288086 25.5516 0.808398 26.0578 1.44121 26.0578H4.61934C4.7459 26.0578 4.8584 25.9594 4.88652 25.8469C5.25215 23.7797 7.05215 22.3453 9.21777 22.3453C11.3834 22.3453 13.1975 23.7797 13.549 25.8469C13.5771 25.9734 13.6756 26.0578 13.8162 26.0578H14.2803H18.6256V20.9531H0.288086V24.9047ZM36.0209 23.6953H35.3178V20.6016C35.3178 19.5469 34.46 18.6891 33.3912 18.6891H29.974C29.9037 18.6891 29.8334 18.6469 29.7771 18.6047L24.4334 13.4016C24.1943 13.1625 23.8568 13.0219 23.5053 13.0078H19.6381V26.0578H25.3896C25.5162 26.0578 25.6287 25.9594 25.6568 25.8469C26.0225 23.7797 27.8225 22.2047 29.9881 22.2047C32.1537 22.2047 33.9678 23.7797 34.3193 25.8469C34.3475 25.9734 34.4459 26.0578 34.5865 26.0578H35.0365C35.7256 26.0578 36.26 25.5094 36.26 24.8344V23.9484C36.2881 23.8219 36.1615 23.6953 36.0209 23.6953ZM27.2318 18.7031H21.41C21.2693 18.7031 21.1428 18.5766 21.1428 18.4359V14.7234C21.1428 14.5828 21.2693 14.4563 21.41 14.4563H23.3646C23.435 14.4563 23.5053 14.4984 23.5756 14.5406L27.4428 18.2391C27.5693 18.4219 27.4568 18.7031 27.2318 18.7031Z" fill="#C0C0C0"/>
<path d="M8.48662 19.0543H2.76318V13.3309H4.971V15.159H6.27881V13.3309H8.48662V19.0543ZM15.9538 19.0543H10.2444V13.3309H12.4522V15.159H13.7601V13.3309H15.9679V19.0543H15.9538ZM12.2694 11.573H6.546V5.84961H8.75381V7.67773H10.0616V5.84961H12.2694V11.573Z" fill="#C0C0C0"/>
</g>
<defs>
<clipPath id="clip0_544_29587">
<rect width="36" height="36" fill="white" transform="translate(0.358398)"/>
</clipPath>
</defs>
</svg>
